<svg xmlns="http://www.w3.org/2000/svg" viewBox="0 0 18.271 17.51">
  <defs>
    <style>
      .cls-1 {
        fill: #505961;
      }
    </style>
  </defs>
  <path id="Мои_покупки_Ховер" data-name="Мои покупки Ховер" class="cls-1" d="M275.18,393.52a1.9,1.9,0,1,1,1.9,1.99A1.929,1.929,0,0,1,275.18,393.52Zm.761,0a1.143,1.143,0,1,0,1.142-1.194A1.2,1.2,0,0,0,275.942,393.52Zm-8.374,0a1.9,1.9,0,1,1,1.9,1.99A1.929,1.929,0,0,1,267.568,393.52Zm.761,0a1.143,1.143,0,1,0,1.142-1.194A1.2,1.2,0,0,0,268.329,393.52Zm1.446-2.786a2.716,2.716,0,0,1-2.588-2.229L265.36,378.8h-1.979a.4.4,0,0,1,0-.8h2.284c.152,0,.381.159.381.319l.38,2.069H280.89a.392.392,0,0,1,.3.159.407.407,0,0,1,.076.239l-1.522,6.367a.335.335,0,0,1-.3.318l-11.114,1.592a1.737,1.737,0,0,0,1.522.876h8.679a.4.4,0,0,1,0,.8Zm-1.827-2.467,11.115-1.512,1.294-5.651H266.578Z" transform="translate(-263 -378)"/>
</svg>
