<svg xmlns="http://www.w3.org/2000/svg" viewBox="0 0 20 19.167">
  <defs>
    <style>
      .cls-1 {
        fill: #502c5a;
      }
    </style>
  </defs>
  <path id="Мои_покупки_Ховер" data-name="Мои покупки Ховер" class="cls-1" d="M276.333,394.989a2.085,2.085,0,1,1,2.083,2.178A2.112,2.112,0,0,1,276.333,394.989Zm.833,0a1.251,1.251,0,1,0,1.25-1.307A1.312,1.312,0,0,0,277.166,394.989Zm-9.166,0a2.085,2.085,0,1,1,2.083,2.178A2.112,2.112,0,0,1,268,394.989Zm.833,0a1.251,1.251,0,1,0,1.25-1.307A1.312,1.312,0,0,0,268.833,394.989Zm1.583-3.049a2.973,2.973,0,0,1-2.833-2.44l-2-10.628h-2.167a.436.436,0,0,1,0-.871h2.5c.166,0,.417.174.417.349l.416,2.265h15.833a.428.428,0,0,1,.334.174.445.445,0,0,1,.083.262l-1.667,6.97a.367.367,0,0,1-.334.348l-12.166,1.742a1.9,1.9,0,0,0,1.666.958H280a.436.436,0,0,1,0,.871Zm-2-2.7,12.167-1.655L282,381.4H266.916Z" transform="translate(-263 -378)"/>
</svg>
