<svg xmlns="http://www.w3.org/2000/svg" viewBox="0 0 20.903 25.906">
  <defs>
    <style>
      .cls-1 {
        fill: #502c5a;
      }
    </style>
  </defs>
  <g id="download" transform="translate(-3.215)">
    <g id="Group_535" data-name="Group 535" transform="translate(9.921 9.732)">
      <path id="Path_49" data-name="Path 49" class="cls-1" d="M16.535,22.062h0a.389.389,0,0,1-.389-.389V12.9a.389.389,0,0,1,.389-.389h0a.389.389,0,0,1,.389.389v8.776A.389.389,0,0,1,16.535,22.062Z" transform="translate(-12.79 -12.507)"/>
      <path id="Path_50" data-name="Path 50" class="cls-1" d="M15.578,23.607a.391.391,0,0,1-.275-.114l-3.356-3.356a.389.389,0,0,1,.55-.55l3.081,3.081,3.081-3.081a.389.389,0,0,1,.55.55l-3.356,3.356A.385.385,0,0,1,15.578,23.607Z" transform="translate(-11.833 -14.053)"/>
    </g>
    <g id="Group_536" data-name="Group 536" transform="translate(3.215)">
      <path id="Path_51" data-name="Path 51" class="cls-1" d="M22.172,25.906H5.16a1.948,1.948,0,0,1-1.945-1.945V1.945A1.948,1.948,0,0,1,5.16,0H17.515a.389.389,0,1,1,0,.778H5.16A1.169,1.169,0,0,0,3.993,1.945V23.961A1.169,1.169,0,0,0,5.16,25.128H22.172a1.169,1.169,0,0,0,1.167-1.167V6.773a.389.389,0,0,1,.778,0V23.961A1.947,1.947,0,0,1,22.172,25.906Z" transform="translate(-3.215)"/>
      <path id="Path_52" data-name="Path 52" class="cls-1" d="M27.7,7.21H21.481a.389.389,0,0,1-.389-.389V.606a.389.389,0,1,1,.778,0V6.431H27.7a.389.389,0,0,1,0,.779Z" transform="translate(-7.182 -0.048)"/>
      <path id="Path_53" data-name="Path 53" class="cls-1" d="M27.7,7.162a.39.39,0,0,1-.279-.117L21.2.662a.389.389,0,0,1,.558-.542L27.975,6.5a.389.389,0,0,1-.279.66Z" transform="translate(-7.182 0)"/>
    </g>
  </g>
</svg>
