<svg xmlns="http://www.w3.org/2000/svg" viewBox="0 0 34.75 34.75">
  <defs>
    <style>
      .cls-1 {
        fill: #505961;
      }
    </style>
  </defs>
  <path id="attachment" class="cls-1" d="M25.037,9.357a.487.487,0,0,0-.689,0l-13.3,13.3a5.211,5.211,0,0,1-7.37-7.37l13.3-13.3a3.574,3.574,0,0,1,5.154.2,3.573,3.573,0,0,1,.2,5.154L9.841,19.835A1.792,1.792,0,0,1,7.306,17.3l8.462-8.462a.487.487,0,0,0-.689-.689L6.617,16.61a2.767,2.767,0,0,0,3.913,3.913L23.022,8.03a4.524,4.524,0,0,0-.2-6.532,4.524,4.524,0,0,0-6.532-.2L2.99,14.6a6.186,6.186,0,0,0,8.749,8.749l13.3-13.3A.487.487,0,0,0,25.037,9.357Z" transform="translate(16.945 -0.838) rotate(45)"/>
</svg>
