<svg xmlns="http://www.w3.org/2000/svg" viewBox="0 0 19.999 20">
  <defs>
    <style>
      .cls-1 {
        fill: #262038;
      }
    </style>
  </defs>
  <path id="история_платежей_" data-name="история платежей " class="cls-1" d="M297.312,449.312A4.688,4.688,0,1,1,302,454,4.693,4.693,0,0,1,297.312,449.312Zm5,3.75v.3a4.07,4.07,0,0,0,3.738-3.739h-.3a.312.312,0,1,1,0-.625h.3a4.069,4.069,0,0,0-3.738-3.739v.3a.313.313,0,0,1-.626,0v-.3A4.069,4.069,0,0,0,297.949,449h.3a.312.312,0,0,1,0,.625h-.3a4.069,4.069,0,0,0,3.738,3.739v-.3a.313.313,0,1,1,.626,0Zm4.687-.625a.312.312,0,0,1,0-.625h3.437a.939.939,0,0,0,.938-.938V439h-.625a.313.313,0,1,1,0-.625h.625v-1.25a.938.938,0,0,0-.938-.937h-.312v.625a.937.937,0,1,1-1.875,0v-.625h-12.5v.625a.937.937,0,1,1-1.875,0v-.625h-.313a.938.938,0,0,0-.937.937v1.25h15a.313.313,0,1,1,0,.625h-15v11.875a.939.939,0,0,0,.937.938H297a.312.312,0,1,1,0,.625h-3.438A1.564,1.564,0,0,1,292,450.875v-13.75a1.564,1.564,0,0,1,1.562-1.562h.313v-.625a.937.937,0,1,1,1.875,0v.625h12.5v-.625a.937.937,0,1,1,1.875,0v.625h.312A1.564,1.564,0,0,1,312,437.125v13.75a1.564,1.564,0,0,1-1.562,1.562Zm1.875-17.5v1.875a.313.313,0,0,0,.626,0v-.937h0v-.937a.313.313,0,1,0-.626,0Zm-14.375,0v.937h0v.937a.312.312,0,0,0,.625,0v-1.875a.312.312,0,1,0-.625,0Zm6.563,14.375a.938.938,0,0,1,.625-.884v-1.616a.313.313,0,0,1,.626,0v1.616a.94.94,0,0,1,.571.572H304.5a.312.312,0,1,1,0,.625h-1.616a.937.937,0,0,1-1.821-.312Zm.625,0A.313.313,0,1,0,302,449,.313.313,0,0,0,301.687,449.312Zm6.563.308a.31.31,0,0,1,0-.62h.63a.31.31,0,0,1,0,.62Zm-13.13,0a.31.31,0,0,1,0-.62h.63a.31.31,0,1,1,0,.62Zm13.13-1.561a.31.31,0,0,1,0-.619h.63a.31.31,0,0,1,0,.619Zm-13.13,0a.31.31,0,0,1,0-.619h.63a.31.31,0,1,1,0,.619Zm11.346-1.651a.312.312,0,1,1,.221.092A.312.312,0,0,1,306.466,446.408Zm-9.375,0a.313.313,0,0,1,.443-.442.319.319,0,0,1,.091.221.312.312,0,0,1-.534.22Zm11.159.082a.31.31,0,0,1,0-.62h.63a.31.31,0,0,1,0,.62Zm-13.13,0a.31.31,0,0,1,0-.62h.63a.31.31,0,1,1,0,.62Zm13.13-1.55a.31.31,0,0,1-.31-.311v-.01a.31.31,0,0,1,.31-.31h.63a.31.31,0,0,1,.31.31v.01a.31.31,0,0,1-.31.311Zm-2.19,0a.31.31,0,0,1-.31-.311v-.01a.31.31,0,0,1,.31-.31h.63a.31.31,0,0,1,.31.31v.01a.31.31,0,0,1-.31.311Zm-8.751,0a.31.31,0,0,1-.31-.311v-.01a.31.31,0,0,1,.31-.31h.63a.31.31,0,0,1,.311.31v.01a.31.31,0,0,1-.311.311Zm-2.19,0a.31.31,0,0,1-.31-.311v-.01a.31.31,0,0,1,.31-.31h.63a.31.31,0,0,1,.31.31v.01a.311.311,0,0,1-.31.311Zm13.13-1.561a.31.31,0,0,1-.31-.31v-.01a.31.31,0,0,1,.31-.311h.63a.31.31,0,0,1,.31.311v.01a.31.31,0,0,1-.31.31Zm-2.19,0a.31.31,0,0,1-.31-.31v-.01a.311.311,0,0,1,.31-.311h.63a.31.31,0,0,1,.31.311v.01a.31.31,0,0,1-.31.31Zm-2.191,0a.31.31,0,0,1-.31-.31v-.01a.31.31,0,0,1,.31-.311h.63a.311.311,0,0,1,.311.311v.01a.31.31,0,0,1-.311.31Zm-2.19,0a.31.31,0,0,1-.31-.31v-.01a.31.31,0,0,1,.31-.311h.63a.31.31,0,0,1,.31.311v.01a.31.31,0,0,1-.31.31Zm-2.18,0a.31.31,0,0,1-.311-.31v-.01a.311.311,0,0,1,.311-.311h.63a.31.31,0,0,1,.31.311v.01a.31.31,0,0,1-.31.31Zm-2.191,0a.31.31,0,0,1-.31-.31v-.01a.31.31,0,0,1,.31-.311h.63a.311.311,0,0,1,.311.311v.01a.31.31,0,0,1-.311.31Zm-2.19,0a.31.31,0,0,1-.31-.31v-.01a.31.31,0,0,1,.31-.311h.63a.311.311,0,0,1,.31.311v.01a.31.31,0,0,1-.31.31Zm13.13-1.56a.31.31,0,0,1-.31-.31v-.01a.31.31,0,0,1,.31-.31h.63a.31.31,0,0,1,.31.31v.01a.31.31,0,0,1-.31.31Zm-2.19,0a.31.31,0,0,1-.31-.31v-.01a.31.31,0,0,1,.31-.31h.63a.31.31,0,0,1,.31.31v.01a.31.31,0,0,1-.31.31Zm-2.191,0a.31.31,0,0,1-.31-.31v-.01a.31.31,0,0,1,.31-.31h.63a.31.31,0,0,1,.311.31v.01a.31.31,0,0,1-.311.31Zm-2.19,0a.31.31,0,0,1-.31-.31v-.01a.31.31,0,0,1,.31-.31h.63a.31.31,0,0,1,.31.31v.01a.31.31,0,0,1-.31.31Zm-2.18,0a.31.31,0,0,1-.311-.31v-.01a.311.311,0,0,1,.311-.31h.63a.31.31,0,0,1,.31.31v.01a.31.31,0,0,1-.31.31Zm-2.191,0a.31.31,0,0,1-.31-.31v-.01a.31.31,0,0,1,.31-.31h.63a.31.31,0,0,1,.311.31v.01a.31.31,0,0,1-.311.31Zm-2.19,0a.31.31,0,0,1-.31-.31v-.01a.31.31,0,0,1,.31-.31h.63a.311.311,0,0,1,.31.31v.01a.31.31,0,0,1-.31.31Zm13.75-2.83a.31.31,0,1,1,0-.62h.63a.31.31,0,0,1,0,.62Z" transform="translate(-292 -434)"/>
</svg>
