<svg xmlns="http://www.w3.org/2000/svg" viewBox="0 0 20.001 14.004">
  <defs>
    <style>
      .cls-1 {
        fill: #502c5a;
      }
    </style>
  </defs>
  <path id="Сообщение" class="cls-1" d="M295.612,354A1.6,1.6,0,0,1,294,352.413V341.587A1.6,1.6,0,0,1,295.612,340h16.776A1.6,1.6,0,0,1,314,341.587v10.826A1.6,1.6,0,0,1,312.388,354Zm-.967-12.415v10.826a.961.961,0,0,0,.967.953h16.776a.962.962,0,0,0,.967-.953V341.587a.934.934,0,0,0-.074-.365l-6.559,5.632,3.692,3.411a.314.314,0,0,1,.014.448.325.325,0,0,1-.456.014l-3.711-3.429a.321.321,0,0,1-.026-.027l-1.052.9a1.875,1.875,0,0,1-2.368,0l-1.051-.9a.322.322,0,0,1-.026.027l-3.712,3.429a.325.325,0,0,1-.456-.014.314.314,0,0,1,.014-.448l3.693-3.41-6.559-5.634A.936.936,0,0,0,294.645,341.587Zm8.6,6.109a1.221,1.221,0,0,0,1.52,0l8.089-6.947a.973.973,0,0,0-.461-.116H295.612a.973.973,0,0,0-.46.115Z" transform="translate(-293.999 -339.998)"/>
</svg>
