<svg xmlns="http://www.w3.org/2000/svg" viewBox="0 0 15 20">
  <defs>
    <style>
      .cls-1 {
        fill: #262038;
      }
    </style>
  </defs>
  <path id="Forma_1" data-name="Forma 1" class="cls-1" d="M275.411,308A1.388,1.388,0,0,1,274,306.639v-15.9a1.388,1.388,0,0,1,1.411-1.361H278a1.051,1.051,0,0,1,1-.691h1.093a1.793,1.793,0,0,1,2.829,0h1.094a1.05,1.05,0,0,1,1,.691h2.586a1.388,1.388,0,0,1,1.41,1.361v15.9A1.388,1.388,0,0,1,287.59,308Zm-.739-17.257v15.9a.727.727,0,0,0,.739.713H287.59a.727.727,0,0,0,.739-.713v-15.9a.727.727,0,0,0-.739-.713h-2.53v.734h2.172a.33.33,0,0,1,.336.324v15.2a.33.33,0,0,1-.336.324H275.769a.33.33,0,0,1-.337-.324v-15.2a.33.33,0,0,1,.337-.324h2.172v-.734h-2.53A.727.727,0,0,0,274.672,290.743Zm1.433,15.226H286.9V291.412H285a1.05,1.05,0,0,1-1,.691h-5.015a1.051,1.051,0,0,1-1-.691H276.1Zm2.507-16.263v1.382a.375.375,0,0,0,.381.367h5.015a.375.375,0,0,0,.381-.367h0v-1.382a.375.375,0,0,0-.381-.367h-1.273a.339.339,0,0,1-.291-.161,1.1,1.1,0,0,0-1.887,0,.339.339,0,0,1-.291.161h-1.273A.375.375,0,0,0,278.612,289.706Zm3.233,13.8a.325.325,0,0,1,0-.65h3.6a.325.325,0,0,1,0,.65Zm-3.448-.1-1.075-1.037a.315.315,0,0,1,0-.458.345.345,0,0,1,.474,0l.838.807,1.553-1.5a.346.346,0,0,1,.475,0,.317.317,0,0,1,0,.458l-1.791,1.728a.346.346,0,0,1-.475,0Zm3.448-1.283a.325.325,0,0,1,0-.65h2.17a.325.325,0,1,1,0,.65Zm-3.448-2.173-1.075-1.037a.315.315,0,0,1,0-.458.345.345,0,0,1,.474,0l.838.808,1.553-1.5a.346.346,0,0,1,.475,0,.317.317,0,0,1,0,.458l-1.791,1.728a.344.344,0,0,1-.475,0Zm3.448.094a.325.325,0,0,1,0-.65h3.6a.325.325,0,0,1,0,.65Zm0-1.38a.325.325,0,0,1,0-.651h2.17a.325.325,0,0,1,0,.651Zm0-2.07a.325.325,0,0,1,0-.651h3.6a.325.325,0,0,1,0,.651Zm-3.448-.1-1.075-1.037a.315.315,0,0,1,0-.458.343.343,0,0,1,.474,0l.838.807,1.553-1.5a.344.344,0,0,1,.475,0,.317.317,0,0,1,0,.458l-1.791,1.728a.346.346,0,0,1-.475,0Zm3.448-1.282a.325.325,0,0,1,0-.65h2.17a.325.325,0,1,1,0,.65Zm-.355-4.5a.33.33,0,0,1-.33-.329v-.68a.33.33,0,0,1,.33-.33h.01a.33.33,0,0,1,.329.33v.68a.33.33,0,0,1-.329.329Z" transform="translate(-274 -288)"/>
</svg>
