<svg xmlns="http://www.w3.org/2000/svg" viewBox="0 0 20 20">
  <defs>
    <style>
      .cls-1 {
        fill: #262038;
      }
    </style>
  </defs>
  <path id="Настройки" class="cls-1" d="M301.117,506a1.235,1.235,0,0,1-1.22-1.032l-.234-1.4a7.927,7.927,0,0,1-1.32-.544l-1.174.836a1.229,1.229,0,0,1-1.588-.134l-1.246-1.245a1.232,1.232,0,0,1-.133-1.592l.823-1.145a7.77,7.77,0,0,1-.572-1.358l-1.42-.242a1.234,1.234,0,0,1-1.032-1.22v-1.759a1.234,1.234,0,0,1,1.032-1.22l1.387-.234a7.686,7.686,0,0,1,.556-1.366l-.836-1.174a1.235,1.235,0,0,1,.134-1.591l1.249-1.246a1.232,1.232,0,0,1,1.591-.133l1.149.827a7.7,7.7,0,0,1,1.358-.572l.242-1.421A1.234,1.234,0,0,1,301.082,486h1.76a1.235,1.235,0,0,1,1.22,1.031l.233,1.388a7.785,7.785,0,0,1,1.413.581l1.161-.827a1.227,1.227,0,0,1,1.588.133l1.246,1.246a1.231,1.231,0,0,1,.133,1.591l-.827,1.157a7.986,7.986,0,0,1,.564,1.363l1.4.238a1.221,1.221,0,0,1,1.024,1.22v1.759a1.235,1.235,0,0,1-1.032,1.22l-1.4.234A7.842,7.842,0,0,1,309,499.7l.827,1.161a1.237,1.237,0,0,1-.134,1.592l-1.245,1.246a1.236,1.236,0,0,1-1.592.133L305.7,503a8.009,8.009,0,0,1-1.362.564l-.238,1.4A1.234,1.234,0,0,1,302.88,506Zm-2.524-4.119a6.971,6.971,0,0,0,1.713.7.56.56,0,0,1,.414.451l.293,1.755a.108.108,0,0,0,.108.092h1.759a.108.108,0,0,0,.108-.092l.3-1.755a.554.554,0,0,1,.414-.451,6.713,6.713,0,0,0,1.751-.727.564.564,0,0,1,.614.025l1.45,1.031a.1.1,0,0,0,.063.022.108.108,0,0,0,.079-.033l1.245-1.246a.113.113,0,0,0,.013-.142l-1.032-1.454a.566.566,0,0,1-.024-.615,6.667,6.667,0,0,0,.726-1.75.562.562,0,0,1,.452-.413l1.755-.293a.109.109,0,0,0,.092-.109h0v-1.759a.108.108,0,0,0-.092-.109l-1.755-.3a.554.554,0,0,1-.451-.413,6.669,6.669,0,0,0-.727-1.75.566.566,0,0,1,.025-.615l1.032-1.449a.114.114,0,0,0-.013-.142l-1.246-1.246a.112.112,0,0,0-.079-.033.131.131,0,0,0-.062.021l-1.442,1.037a.563.563,0,0,1-.614.024,6.825,6.825,0,0,0-1.793-.735.565.565,0,0,1-.418-.455l-.293-1.741a.107.107,0,0,0-.109-.092h-1.759a.107.107,0,0,0-.109.092l-.3,1.767a.573.573,0,0,1-.414.452,6.612,6.612,0,0,0-1.746.735.572.572,0,0,1-.618-.025l-1.442-1.028a.1.1,0,0,0-.062-.021.105.105,0,0,0-.08.033l-1.245,1.245a.113.113,0,0,0-.013.142l1.04,1.462a.555.555,0,0,1,.029.609,6.688,6.688,0,0,0-.714,1.755.564.564,0,0,1-.455.418l-1.742.292a.109.109,0,0,0-.092.109v1.759a.107.107,0,0,0,.092.108l1.767.3a.573.573,0,0,1,.452.414,6.613,6.613,0,0,0,.735,1.746.572.572,0,0,1-.025.618l-1.028,1.442a.113.113,0,0,0,.013.142l1.245,1.245a.111.111,0,0,0,.08.033.121.121,0,0,0,.062-.021l1.463-1.04a.551.551,0,0,1,.326-.1A.578.578,0,0,1,298.593,501.881ZM297.686,496A4.316,4.316,0,1,1,302,500.314,4.319,4.319,0,0,1,297.686,496Zm1.129,0A3.188,3.188,0,1,0,302,492.81,3.19,3.19,0,0,0,298.814,496Z" transform="translate(-292 -486)"/>
</svg>
