<svg xmlns="http://www.w3.org/2000/svg" viewBox="0 0 13.479 24.758">
  <defs>
    <style>
      .cls-1 {
        fill: #502c5a;
      }

      .cls-1, .cls-2 {
        stroke-linejoin: round;
      }

      .cls-2 {
        fill: none;
      }

      .cls-3, .cls-4 {
        stroke: none;
      }

      .cls-4 {
        fill: #fff;
      }
    </style>
  </defs>
  <g id="arrow_left" data-name="arrow left" transform="translate(-389.766 -4147.494)">
    <g id="arrow_left-2" data-name="arrow left" class="cls-1">
      <path class="cls-3" d="M389.766,4160.153l.285-.28-.285-.281,12.3-12.1,1.18,1.161-11.4,11.218,11.4,11.217-1.18,1.162Z"/>
      <path class="cls-4" d="M 402.0654907226563 4172.251953125 L 389.7662963867188 4160.1533203125 L 390.0514831542969 4159.873046875 L 389.7662963867188 4159.59228515625 L 402.0654907226563 4147.494140625 L 403.2455749511719 4148.6552734375 L 391.8416137695313 4159.873046875 L 403.2455749511719 4171.09033203125 L 402.0654907226563 4172.251953125 Z"/>
    </g>
    <g id="Stroke_Effect" data-name="Stroke Effect" class="cls-2">
      <path class="cls-3" d="M389.766,4160.153l.285-.28-.285-.281,12.3-12.1,1.18,1.161-11.4,11.218,11.4,11.217-1.18,1.162Z"/>
      <path class="cls-4" d="M 402.0654907226563 4172.251953125 L 389.7662963867188 4160.1533203125 L 390.0514831542969 4159.873046875 L 389.7662963867188 4159.59228515625 L 402.0654907226563 4147.494140625 L 403.2455749511719 4148.6552734375 L 391.8416137695313 4159.873046875 L 403.2455749511719 4171.09033203125 L 402.0654907226563 4172.251953125 Z"/>
    </g>
  </g>
</svg>
