<svg id="_003-clipboard" data-name="003-clipboard" xmlns="http://www.w3.org/2000/svg" viewBox="0 0 42 42">
  <defs>
    <style>
      .cls-1 {
        fill: #502c5a;
      }
    </style>
  </defs>
  <g id="Group_677" data-name="Group 677" transform="translate(23.953 18.047)">
    <g id="Group_676" data-name="Group 676">
      <path id="Path_62" data-name="Path 62" class="cls-1" d="M292.82,220a.82.82,0,1,0,.82.82A.821.821,0,0,0,292.82,220Z" transform="translate(-292 -220)"/>
    </g>
  </g>
  <g id="Group_679" data-name="Group 679" transform="translate(23.953 32.156)">
    <g id="Group_678" data-name="Group 678">
      <path id="Path_63" data-name="Path 63" class="cls-1" d="M292.82,392a.82.82,0,1,0,.82.82A.821.821,0,0,0,292.82,392Z" transform="translate(-292 -392)"/>
    </g>
  </g>
  <g id="Group_681" data-name="Group 681" transform="translate(15.258 3.281)">
    <g id="Group_680" data-name="Group 680">
      <path id="Path_64" data-name="Path 64" class="cls-1" d="M186.82,40a.82.82,0,1,0,.82.82A.821.821,0,0,0,186.82,40Z" transform="translate(-186 -40)"/>
    </g>
  </g>
  <g id="Group_683" data-name="Group 683" transform="translate(9.844 37.078)">
    <g id="Group_682" data-name="Group 682">
      <path id="Path_65" data-name="Path 65" class="cls-1" d="M120.82,452a.82.82,0,1,0,.82.82A.821.821,0,0,0,120.82,452Z" transform="translate(-120 -452)"/>
    </g>
  </g>
  <g id="Group_685" data-name="Group 685">
    <g id="Group_684" data-name="Group 684">
      <path id="Path_66" data-name="Path 66" class="cls-1" d="M29.7,4.922H22.64a4.124,4.124,0,0,0-2.528-1.57,4.1,4.1,0,0,0-8.066,0A4.082,4.082,0,0,0,9.517,4.922H2.461A2.464,2.464,0,0,0,0,7.383V39.539A2.464,2.464,0,0,0,2.461,42H29.7a2.464,2.464,0,0,0,2.461-2.461V7.383A2.464,2.464,0,0,0,29.7,4.922ZM10.336,7.383A2.461,2.461,0,0,1,12.8,4.922a.82.82,0,0,0,.82-.82,2.461,2.461,0,0,1,4.922,0,.82.82,0,0,0,.82.82A2.463,2.463,0,0,1,21.82,7.383V8.2H10.336Zm20.18,32.156a.821.821,0,0,1-.82.82H2.461a.821.821,0,0,1-.82-.82V7.383a.828.828,0,0,1,.82-.829H8.779a4.187,4.187,0,0,0-.083.829V8.2H4.1a.82.82,0,0,0-.82.82V37.9a.82.82,0,0,0,.82.82H7.383a.82.82,0,0,0,0-1.641H4.922V9.844H27.234V37.078H13.945a.82.82,0,0,0,0,1.641H28.055a.82.82,0,0,0,.82-.82V9.023a.82.82,0,0,0-.82-.82H23.461v-.82a4.105,4.105,0,0,0-.083-.82H29.7a.821.821,0,0,1,.82.82Z"/>
    </g>
  </g>
  <g id="Group_687" data-name="Group 687" transform="translate(6.562 11.484)">
    <g id="Group_686" data-name="Group 686">
      <path id="Path_67" data-name="Path 67" class="cls-1" d="M98.211,140H80.82a.82.82,0,0,0,0,1.641H98.211a.82.82,0,0,0,0-1.641Z" transform="translate(-80 -140)"/>
    </g>
  </g>
  <g id="Group_689" data-name="Group 689" transform="translate(6.562 14.766)">
    <g id="Group_688" data-name="Group 688">
      <path id="Path_68" data-name="Path 68" class="cls-1" d="M98.211,180H80.82a.82.82,0,0,0,0,1.641H98.211a.82.82,0,0,0,0-1.641Z" transform="translate(-80 -180)"/>
    </g>
  </g>
  <g id="Group_691" data-name="Group 691" transform="translate(6.562 18.047)">
    <g id="Group_690" data-name="Group 690">
      <path id="Path_69" data-name="Path 69" class="cls-1" d="M94.93,220H80.82a.82.82,0,0,0,0,1.641H94.93a.82.82,0,0,0,0-1.641Z" transform="translate(-80 -220)"/>
    </g>
  </g>
  <g id="Group_693" data-name="Group 693" transform="translate(14.766 25.594)">
    <g id="Group_692" data-name="Group 692">
      <path id="Path_70" data-name="Path 70" class="cls-1" d="M190.008,312H180.82a.82.82,0,0,0,0,1.641h9.188a.82.82,0,0,0,0-1.641Z" transform="translate(-180 -312)"/>
    </g>
  </g>
  <g id="Group_695" data-name="Group 695" transform="translate(14.766 28.875)">
    <g id="Group_694" data-name="Group 694">
      <path id="Path_71" data-name="Path 71" class="cls-1" d="M190.008,352H180.82a.82.82,0,0,0,0,1.641h9.188a.82.82,0,0,0,0-1.641Z" transform="translate(-180 -352)"/>
    </g>
  </g>
  <g id="Group_697" data-name="Group 697" transform="translate(14.766 32.156)">
    <g id="Group_696" data-name="Group 696">
      <path id="Path_72" data-name="Path 72" class="cls-1" d="M186.727,392H180.82a.82.82,0,0,0,0,1.641h5.906a.82.82,0,0,0,0-1.641Z" transform="translate(-180 -392)"/>
    </g>
  </g>
  <g id="Group_699" data-name="Group 699" transform="translate(35.437 4.922)">
    <g id="Group_698" data-name="Group 698">
      <path id="Path_73" data-name="Path 73" class="cls-1" d="M435.281,60A3.28,3.28,0,0,0,432,63.281V89.7a.85.85,0,0,0,.052.288l2.461,6.563a.82.82,0,0,0,1.536,0l2.461-6.562a.86.86,0,0,0,.052-.288V63.281A3.282,3.282,0,0,0,435.281,60Zm0,33.922L434,90.516h2.554Zm1.641-5.047h-3.281V69.844h3.281Zm0-20.672h-3.281V66.563h3.281Zm0-3.281h-3.281V63.281a1.641,1.641,0,0,1,3.281,0Z" transform="translate(-432 -60)"/>
    </g>
  </g>
  <g id="Group_701" data-name="Group 701" transform="translate(6.562 23.953)">
    <g id="Group_700" data-name="Group 700">
      <path id="Path_74" data-name="Path 74" class="cls-1" d="M86.563,295.281a3.281,3.281,0,0,0-6.562,0c0,.018,0,.035,0,.053s0,.019,0,.029v7.3a.82.82,0,0,0,1.275.682l2.006-1.337,2.006,1.337a.82.82,0,0,0,1.275-.682v-7.3c0-.01,0-.019,0-.029S86.563,295.3,86.563,295.281Zm-1.641,5.85-1.186-.79a.82.82,0,0,0-.91,0l-1.186.79v-3a3.313,3.313,0,0,0,3.281,0Zm0-5.819c0,.008,0,.016,0,.024a1.639,1.639,0,0,1-3.277,0c0-.008,0-.016,0-.024s0-.021,0-.031a1.641,1.641,0,0,1,3.281,0C84.922,295.292,84.922,295.3,84.921,295.312Z" transform="translate(-80 -292)"/>
    </g>
  </g>
</svg>
