<svg id="_001-package" data-name="001-package" xmlns="http://www.w3.org/2000/svg" viewBox="0 0 42 42">
  <defs>
    <style>
      .cls-1 {
        fill: #502c5a;
      }
    </style>
  </defs>
  <g id="Group_661" data-name="Group 661" transform="translate(11.977 30.352)">
    <g id="Group_660" data-name="Group 660">
      <path id="Path_54" data-name="Path 54" class="cls-1" d="M146.819,370a.82.82,0,1,0,.82.82A.821.821,0,0,0,146.819,370Z" transform="translate(-145.999 -370.002)"/>
    </g>
  </g>
  <g id="Group_663" data-name="Group 663" transform="translate(0)">
    <g id="Group_662" data-name="Group 662">
      <path id="Path_55" data-name="Path 55" class="cls-1" d="M36.925,15.588l4.834-4.834a.82.82,0,0,0-.338-1.364L29.65,5.757A8.2,8.2,0,0,0,14.21,5.139L.576,9.391A.82.82,0,0,0,.24,10.754L5.2,15.715,2.072,20.93a.82.82,0,0,0,.444,1.2l4.538,1.513V36.26a.82.82,0,0,0,.532.768c2.775,1.04,13.085,4.907,13.14,4.927a.817.817,0,0,0,.525.007l.007,0,14.766-4.922a.82.82,0,0,0,.561-.778V23.305l4.84-1.521a.82.82,0,0,0,.334-1.363Zm-6.9-7.383c0-.208-.009-.416-.024-.624l9.638,2.975-4.093,4.093L28.856,12.42A8.227,8.227,0,0,0,30.023,8.205ZM15.612,6.07a6.562,6.562,0,0,1,12.77,2.135,6.562,6.562,0,0,1-6.562,6.563,6.568,6.568,0,0,1-6.208-8.7ZM2.359,10.553,13.7,7.016a8.271,8.271,0,0,0-.087,1.189,8.154,8.154,0,0,0,.909,3.754l-8.07,2.69ZM4,20.9,6.6,16.574l13.171,4.39-2.594,4.323ZM20.179,40,8.695,35.691V24.19c9.036,3,8.594,2.9,8.846,2.9a.821.821,0,0,0,.7-.4l1.935-3.225ZM21,19.645,8.828,15.588l6.628-2.209a8.2,8.2,0,0,0,12.36.424l5.355,1.785ZM34.945,35.669,21.82,40.044v-17.2l2.908,3.635a.821.821,0,0,0,.887.27l9.33-2.932ZM25.658,25.02l-3.283-4.1,13.169-4.389,4.1,4.1Z" transform="translate(0 -0.002)"/>
    </g>
  </g>
  <g id="Group_665" data-name="Group 665" transform="translate(15.074 31.436)">
    <g id="Group_664" data-name="Group 664">
      <path id="Path_56" data-name="Path 56" class="cls-1" d="M186.69,383.956l-1.824-.684a.82.82,0,1,0-.576,1.536l1.824.684a.82.82,0,0,0,.576-1.536Z" transform="translate(-183.757 -383.219)"/>
    </g>
  </g>
  <g id="Group_667" data-name="Group 667" transform="translate(11.976 33.779)">
    <g id="Group_666" data-name="Group 666">
      <path id="Path_57" data-name="Path 57" class="cls-1" d="M152.026,413.677l-4.922-1.846a.82.82,0,0,0-.576,1.536l4.922,1.846a.82.82,0,1,0,.576-1.536Z" transform="translate(-145.995 -411.779)"/>
    </g>
  </g>
  <g id="Group_669" data-name="Group 669" transform="translate(18.539 4.922)">
    <g id="Group_668" data-name="Group 668">
      <path id="Path_58" data-name="Path 58" class="cls-1" d="M233.961,60.241a.82.82,0,0,0-1.16,0l-4.342,4.342L227.4,63.522a.82.82,0,1,0-1.16,1.16l1.641,1.641a.82.82,0,0,0,1.16,0l4.922-4.922A.82.82,0,0,0,233.961,60.241Z" transform="translate(-225.998 -60.001)"/>
    </g>
  </g>
</svg>
