<svg id="_002-shield" data-name="002-shield" xmlns="http://www.w3.org/2000/svg" viewBox="0 0 34.453 42">
  <defs>
    <style>
      .cls-1 {
        fill: #502c5a;
      }
    </style>
  </defs>
  <g id="Group_671" data-name="Group 671" transform="translate(0)">
    <g id="Group_670" data-name="Group 670">
      <path id="Path_59" data-name="Path 59" class="cls-1" d="M80.453,7.378a.82.82,0,0,0-.82-.82c-.022,0-.043,0-.064,0A5.748,5.748,0,0,1,73.891.82.82.82,0,0,0,73.07,0H53.383a.82.82,0,0,0-.82.82A5.749,5.749,0,0,1,46.82,6.563a.82.82,0,0,0-.82.82V20.95c0,10.313,6.5,14.338,12.231,17.889a53.657,53.657,0,0,1,4.5,2.991.82.82,0,0,0,1,0,54.19,54.19,0,0,1,4.516-3.008c5.885-3.65,12.21-7.622,12.21-17.872V7.378ZM78.812,20.95c0,9.385-5.813,12.991-11.434,16.478-1.4.867-2.837,1.76-4.152,2.726-1.306-.959-2.74-1.847-4.132-2.71C53.463,33.956,47.641,30.35,47.641,20.95V8.158a7.4,7.4,0,0,0,6.517-6.517H72.3a7.4,7.4,0,0,0,6.517,6.517Z" transform="translate(-46)"/>
    </g>
  </g>
  <g id="Group_673" data-name="Group 673" transform="translate(4.922 7.055)">
    <g id="Group_672" data-name="Group 672">
      <path id="Path_60" data-name="Path 60" class="cls-1" d="M118.3,86a12.3,12.3,0,1,0,12.3,12.3A12.319,12.319,0,0,0,118.3,86Zm0,22.969A10.664,10.664,0,1,1,128.969,98.3,10.676,10.676,0,0,1,118.3,108.969Z" transform="translate(-106 -86)"/>
    </g>
  </g>
  <g id="Group_675" data-name="Group 675" transform="translate(13.945 12.035)">
    <g id="Group_674" data-name="Group 674">
      <path id="Path_61" data-name="Path 61" class="cls-1" d="M219.665,153.368c-1.223-.646-2.024-1.116-2.024-1.736a1.641,1.641,0,0,1,3.281,0,.82.82,0,0,0,1.641,0,3.287,3.287,0,0,0-2.461-3.177v-.924a.82.82,0,0,0-1.641,0v.924A3.287,3.287,0,0,0,216,151.632c0,1.655,1.54,2.469,2.9,3.187,1.222.646,2.024,1.116,2.024,1.735a1.641,1.641,0,0,1-3.281,0,.82.82,0,0,0-1.641,0,3.287,3.287,0,0,0,2.461,3.177v.924a.82.82,0,0,0,1.641,0v-.924a3.287,3.287,0,0,0,2.461-3.177C222.563,154.9,221.023,154.086,219.665,153.368Z" transform="translate(-216 -146.71)"/>
    </g>
  </g>
</svg>
