<svg id="Детская" xmlns="http://www.w3.org/2000/svg" viewBox="0 0 57.154 60">
  <defs>
    <style>
      .cls-1 {
        fill: #505961;
      }
    </style>
  </defs>
  <g id="Group_98" data-name="Group 98" transform="translate(11.055 0)">
    <g id="Group_97" data-name="Group 97" transform="translate(0)">
      <path id="Path_40" data-name="Path 40" class="cls-1" d="M116.293,21.5l-7.9-20.171A2.143,2.143,0,0,0,105.649.141l-20.173,7.9a2.113,2.113,0,0,0-1.186,2.742l7.962,20.173a2.113,2.113,0,0,0,2.742,1.2l20.114-7.9a2.113,2.113,0,0,0,1.186-2.745ZM94.363,29.826,86.651,10.2l19.627-7.725,7.714,19.646Z" transform="translate(-84.141 -0.001)"/>
    </g>
  </g>
  <g id="Group_100" data-name="Group 100" transform="translate(0 34.162)">
    <g id="Group_99" data-name="Group 99">
      <path id="Path_41" data-name="Path 41" class="cls-1" d="M33.336,230.316H11.725a2.113,2.113,0,0,0-2.1,2.115v21.611a2.113,2.113,0,0,0,2.113,2.113h21.6a2.113,2.113,0,0,0,2.113-2.113V232.431A2.113,2.113,0,0,0,33.336,230.316Zm-.261,23.459H12V232.69H33.082Z" transform="translate(-9.623 -230.316)"/>
    </g>
  </g>
  <g id="Group_102" data-name="Group 102" transform="translate(26.534 28.42)">
    <g id="Group_101" data-name="Group 101" transform="translate(0 0)">
      <path id="Path_42" data-name="Path 42" class="cls-1" d="M217.592,197.271l-20.884-5.553a2.143,2.143,0,0,0-2.586,1.543l-5.553,20.884a2.113,2.113,0,0,0,1.495,2.586h0l20.884,5.553a2.113,2.113,0,0,0,2.586-1.495h0l5.506-20.932a2.113,2.113,0,0,0-1.448-2.586Zm-6.278,22.547-20.386-5.358,5.422-20.375,20.371,5.437Z" transform="translate(-188.497 -191.656)"/>
    </g>
  </g>
  <g id="Group_104" data-name="Group 104" transform="translate(23.497 9.621)">
    <g id="Group_103" data-name="Group 103" transform="translate(0 0)">
      <path id="Path_43" data-name="Path 43" class="cls-1" d="M178.817,73.71a4,4,0,0,0-.843-1.091l-5.933-6.251-.7-.759a3.556,3.556,0,0,0-.582-.486,1.663,1.663,0,0,0-.714-.273,2.006,2.006,0,0,0-1.607.641,1.648,1.648,0,0,0-.332.688,4.185,4.185,0,0,0-.084.893v9.534q.036.536.059.818a1.772,1.772,0,0,0,.107.522,1.056,1.056,0,0,0,.629.593,1.186,1.186,0,0,0,.893,0,.938.938,0,0,0,.629-.593,5.625,5.625,0,0,0,.095-1.388v-1.7l4.7-1.838,1.116,1.186.511.511a2.618,2.618,0,0,0,.486.4,1.019,1.019,0,0,0,.439.143,1.116,1.116,0,0,0,.511-.084,1.188,1.188,0,0,0,.629-.605A1.1,1.1,0,0,0,178.817,73.71Zm-8.484-.866-.166-5.387,3.608,4.035Z" transform="translate(-168.02 -64.845)"/>
    </g>
  </g>
  <g id="Group_106" data-name="Group 106" transform="translate(8.059 40.319)">
    <g id="Group_105" data-name="Group 105" transform="translate(0 0)">
      <path id="Path_44" data-name="Path 44" class="cls-1" d="M71.782,277.689a2.858,2.858,0,0,0,1.85-2.717,2.966,2.966,0,0,0-.179-1.02,2.931,2.931,0,0,0-.511-.893,3.036,3.036,0,0,0-.772-.664,3.277,3.277,0,0,0-1.186-.427,9.381,9.381,0,0,0-1.531-.107H65.517a1.59,1.59,0,0,0-1.186.357,1.625,1.625,0,0,0-.357,1.186v9.3a1.648,1.648,0,0,0,.345,1.186,1.567,1.567,0,0,0,1.2.368H69.3a13.315,13.315,0,0,0,1.65-.154,5.1,5.1,0,0,0,1.306-.332,3.193,3.193,0,0,0,1.429-1.186,3.393,3.393,0,0,0,.536-1.875,3.025,3.025,0,0,0-2.44-3.025ZM66.5,273.772h1.991a5.1,5.1,0,0,1,2.029.309,1.186,1.186,0,0,1,.664,1.186,1.533,1.533,0,0,1-.214.795,1.377,1.377,0,0,1-.784.677,4.6,4.6,0,0,1-1.448.179h-2.3Zm5.179,6.776q0,1.827-2.54,1.827h-2.7l.059-3.608h2.575a3.69,3.69,0,0,1,1.965.427,1.5,1.5,0,0,1,.634,1.354Z" transform="translate(-63.965 -271.852)"/>
    </g>
  </g>
  <g id="Group_108" data-name="Group 108" transform="translate(36.378 36.929)">
    <g id="Group_107" data-name="Group 107" transform="translate(0 0)">
      <path id="Path_45" data-name="Path 45" class="cls-1" d="M266.267,252.309a4.821,4.821,0,0,0-1.413-1.922,5.777,5.777,0,0,0-2.374-1.186,6.144,6.144,0,0,0-2.374-.179,5.433,5.433,0,0,0-2.159.748,5.731,5.731,0,0,0-1.72,1.638,7.715,7.715,0,0,0-1.1,2.466,8.406,8.406,0,0,0-.284,1.72,6.7,6.7,0,0,0,.107,1.625,6.149,6.149,0,0,0,.475,1.472,4.936,4.936,0,0,0,.893,1.306,5.019,5.019,0,0,0,1.25.938,7.885,7.885,0,0,0,1.674.641,5.714,5.714,0,0,0,2.29.179,4.665,4.665,0,0,0,1.816-.688A4.6,4.6,0,0,0,264.537,260a3.276,3.276,0,0,0,.605-1.186,1.032,1.032,0,0,0-.107-.83,1.055,1.055,0,0,0-.664-.5.893.893,0,0,0-.818.107,2.68,2.68,0,0,0-.582.664,3.251,3.251,0,0,1-1.495,1.186,3.062,3.062,0,0,1-1.9,0,3.169,3.169,0,0,1-1.507-.748,3.025,3.025,0,0,1-.736-1.673,6.184,6.184,0,0,1,.225-2.374,5.328,5.328,0,0,1,1.732-3.074,2.967,2.967,0,0,1,2.679-.5,2.826,2.826,0,0,1,1.459.854,3.787,3.787,0,0,1,.759,1.625,3.168,3.168,0,0,0,.32.893,1.01,1.01,0,0,0,.641.4.961.961,0,0,0,.795-.13,1.081,1.081,0,0,0,.486-.652,2.931,2.931,0,0,0-.163-1.756Z" transform="translate(-254.835 -248.978)"/>
    </g>
  </g>
</svg>
