<svg xmlns="http://www.w3.org/2000/svg" viewBox="0 0 34.643 45.018">
  <defs>
    <style>
      .cls-1 {
        fill: #505961;
      }
    </style>
  </defs>
  <path id="Forma_1" data-name="Forma 1" class="cls-1" d="M8.471,45.017a.79.79,0,0,1,0-1.58H25.264v-3.1s0-.007,0-.01,0-.007,0-.01V9.385H1.579V43.438H5.84a.79.79,0,0,1,0,1.58H.789A.79.79,0,0,1,0,44.228V8.595A.79.79,0,0,1,.789,7.8H26.054a.79.79,0,0,1,.789.79v30.94h2.321V5.483H5.478V6.488a.789.789,0,1,1-1.579,0v-1.8a.79.79,0,0,1,.789-.79H7.8V.79A.79.79,0,0,1,8.589,0H33.853a.789.789,0,0,1,.789.79V4.9a.789.789,0,1,1-1.579,0V1.58H9.378V3.9H29.953a.79.79,0,0,1,.789.79V40.325a.79.79,0,0,1-.789.79h-3.11v3.113a.79.79,0,0,1-.789.79ZM16.1,39.412a.79.79,0,0,1,0-1.58h5.367a.79.79,0,0,1,0,1.58Zm15.958-2.2a.79.79,0,0,1,0-1.58h1.006V7.529a.789.789,0,1,1,1.579,0V36.422a.789.789,0,0,1-.789.79ZM11.22,31.356a.79.79,0,0,1,0-1.58H21.467a.79.79,0,0,1,0,1.58Zm-5.844,0a.79.79,0,0,1,0-1.58H8.589a.79.79,0,0,1,0,1.58Zm0-4.028a.79.79,0,0,1,0-1.58H21.467a.79.79,0,0,1,0,1.58ZM19.047,23.3a.79.79,0,0,1,0-1.58h2.42a.79.79,0,0,1,0,1.58Zm-13.671,0a.79.79,0,0,1,0-1.58h11.04a.79.79,0,0,1,0,1.58Zm0-4.028a.79.79,0,0,1,0-1.58H21.467a.79.79,0,0,1,0,1.58ZM14.312,13.8a.79.79,0,0,1,0-1.58h4.981a.79.79,0,0,1,0,1.58Zm-6.761,0a.79.79,0,0,1,0-1.58h4.13a.79.79,0,0,1,0,1.58Z"/>
</svg>
