<svg xmlns="http://www.w3.org/2000/svg" viewBox="0 0 44.979 45.018">
  <defs>
    <style>
      .cls-1 {
        fill: #505961;
      }
    </style>
  </defs>
  <path id="Forma_1" data-name="Forma 1" class="cls-1" d="M39.781,44.921a.767.767,0,0,1-.394-.67V42.487H14.37v1.764A.766.766,0,0,1,13.2,44.9l-4.06-2.53a.767.767,0,0,1,0-1.3l4.06-2.53a.766.766,0,0,1,1.171.651v1.763H39.387V39.19a.766.766,0,0,1,1.171-.651l4.06,2.53a.767.767,0,0,1,0,1.3l-4.06,2.53a.766.766,0,0,1-.777.019Zm1.138-2.051,1.845-1.15-1.845-1.149ZM10.993,41.72l1.845,1.15v-2.3ZM2.644,35.871.116,31.807a.767.767,0,0,1,.65-1.172H2.528V10.849a.766.766,0,1,1,1.532,0V30.635H5.822a.767.767,0,0,1,.65,1.172L3.944,35.871a.766.766,0,0,1-1.3,0Zm.65-1.856,1.148-1.846h-2.3Zm6.249,2.217a.767.767,0,0,1-.766-.767V.767A.767.767,0,0,1,9.543,0h34.67a.766.766,0,0,1,.766.767V3.181a.766.766,0,1,1-1.532,0V1.534H21.558v17.34H35.194a.767.767,0,0,1,0,1.534H21.558v5.061a.766.766,0,1,1-1.532,0V1.534H10.309V34.7h9.716v-3.71a.766.766,0,1,1,1.532,0V34.7H43.447V20.408H40.4a.767.767,0,0,1,0-1.534h3.043V5.737a.766.766,0,1,1,1.532,0V35.466a.766.766,0,0,1-.766.767ZM2.528,8.8V5.6H.766a.767.767,0,0,1-.65-1.172L2.644.362a.766.766,0,0,1,1.3,0L6.473,4.425A.767.767,0,0,1,5.822,5.6H4.06V8.8a.766.766,0,1,1-1.532,0Zm-.382-4.74h2.3L3.294,2.218Z"/>
</svg>
