<svg xmlns="http://www.w3.org/2000/svg" viewBox="0 0 32 32">
  <defs>
    <style>
      .cls-1 {
        fill: #d02a2a;
      }

      .cls-2 {
        fill: #fff;
      }
    </style>
  </defs>
  <g id="Group_656" data-name="Group 656" transform="translate(-1257 -301)">
    <g id="Group_654" data-name="Group 654">
      <g id="Assets_32X32_i_google_color" data-name="Assets/32X32/i_google_color" transform="translate(1257 301)">
        <rect id="icon" class="cls-1" width="32" height="32" rx="2"/>
        <path id="Shape" class="cls-2" d="M0,6.008A5.842,5.842,0,0,1,5.423.018,5.549,5.549,0,0,1,9.528,1.5c-.467.539-.942,1.071-1.449,1.57A3.863,3.863,0,0,0,4.7,2.373,3.84,3.84,0,0,0,2.367,7.217,3.554,3.554,0,0,0,7.131,9.5,3.274,3.274,0,0,0,8.987,7.231C7.9,7.208,6.8,7.223,5.713,7.191c0-.682-.005-1.361,0-2.042,1.82,0,3.643-.009,5.466.009a7.037,7.037,0,0,1-1.157,4.8,5.466,5.466,0,0,1-6.162,1.724A5.983,5.983,0,0,1,0,6.008Z" transform="translate(6.985 10.401)"/>
        <path id="Shape-2" data-name="Shape" class="cls-2" d="M1.646,0H3.269c0,.57.008,1.143.011,1.713.543.006,1.089.009,1.632.011V3.431L3.28,3.44c-.005.573-.008,1.143-.011,1.716-.543,0-1.086,0-1.626,0-.005-.573-.005-1.143-.011-1.713C1.089,3.437.543,3.434,0,3.431V1.724c.543,0,1.086-.006,1.632-.011C1.635,1.143,1.64.57,1.646,0Z" transform="translate(20.063 13.831)"/>
      </g>
    </g>
  </g>
</svg>
