<svg xmlns="http://www.w3.org/2000/svg" viewBox="0 0 32 32">
  <defs>
    <style>
      .cls-1 {
        fill: #0e76a8;
      }

      .cls-2 {
        fill: #fff;
      }
    </style>
  </defs>
  <g id="Group_657" data-name="Group 657" transform="translate(-1296 -301)">
    <g id="Assets_32X32_i_in_color" data-name="Assets/32X32/i_in_color" transform="translate(1296 301)">
      <rect id="icon" class="cls-1" width="32" height="32" rx="2"/>
      <path id="Shape" class="cls-2" d="M9,15.705H5.619V4.453H9V6.014A5.06,5.06,0,0,1,13.127,4.1a3.29,3.29,0,0,1,2.476.96,6.069,6.069,0,0,1,1.251,4.277V15.7H13.489V9.589c0-1.665-.619-2.509-1.84-2.509A2.667,2.667,0,0,0,9,9.62V15.7Zm-5.612,0H.018V4.49H3.383V15.7ZM1.685,3.369A1.684,1.684,0,1,1,3.37,1.685,1.686,1.686,0,0,1,1.685,3.369Z" transform="translate(8.537 7.5)"/>
    </g>
  </g>
</svg>
