<svg id="Кухня" xmlns="http://www.w3.org/2000/svg" viewBox="0 0 41.788 41.787">
  <defs>
    <style>
      .cls-1 {
        fill: #505961;
      }
    </style>
  </defs>
  <g id="SVGCleanerId_0" transform="translate(11.143 25.073)">
    <g id="Group_30" data-name="Group 30">
      <path id="Path_27" data-name="Path 27" class="cls-1" d="M155.339,307.2H137.23a.7.7,0,0,0-.7.7v15.322a.7.7,0,0,0,.7.7h18.108a.7.7,0,0,0,.7-.7V307.9A.7.7,0,0,0,155.339,307.2Zm-.7,15.322H137.926V308.593h16.715v13.93Z" transform="translate(-136.534 -307.2)"/>
    </g>
  </g>
  <g id="Group_32" data-name="Group 32" transform="translate(11.143 25.073)">
    <g id="Group_31" data-name="Group 31">
      <path id="Path_28" data-name="Path 28" class="cls-1" d="M155.339,307.2H137.23a.7.7,0,0,0-.7.7v15.322a.7.7,0,0,0,.7.7h18.108a.7.7,0,0,0,.7-.7V307.9A.7.7,0,0,0,155.339,307.2Zm-.7,15.322H137.926V308.593h16.715v13.93Z" transform="translate(-136.534 -307.2)"/>
    </g>
  </g>
  <g id="Group_34" data-name="Group 34" transform="translate(0 25.073)">
    <g id="Group_33" data-name="Group 33">
      <path id="Path_29" data-name="Path 29" class="cls-1" d="M11.84,307.2H.7a.7.7,0,0,0-.7.7v15.322a.7.7,0,0,0,.7.7H11.84a.7.7,0,0,0,.7-.7V307.9a.7.7,0,0,0-.7-.7Zm-.7,15.322H1.393V308.593h9.75v13.93Z" transform="translate(0 -307.2)"/>
    </g>
  </g>
  <g id="Group_36" data-name="Group 36" transform="translate(29.253 25.073)">
    <g id="Group_35" data-name="Group 35" transform="translate(0)">
      <path id="Path_30" data-name="Path 30" class="cls-1" d="M370.24,307.2H359.1a.7.7,0,0,0-.7.7v15.322a.7.7,0,0,0,.7.7H370.24a.7.7,0,0,0,.7-.7V307.9A.7.7,0,0,0,370.24,307.2Zm-.7,15.322h-9.751V308.593h9.751v13.93Z" transform="translate(-358.401 -307.2)"/>
    </g>
  </g>
  <g id="Group_38" data-name="Group 38" transform="translate(13.93 30.645)">
    <g id="Group_37" data-name="Group 37" transform="translate(0)">
      <path id="Path_31" data-name="Path 31" class="cls-1" d="M183.9,375.467H171.363a.7.7,0,0,0-.7.7v6.964a.7.7,0,0,0,.7.7H183.9a.7.7,0,0,0,.7-.7v-6.964a.7.7,0,0,0-.7-.7Zm-.7,6.964H172.06v-5.572H183.2Z" transform="translate(-170.667 -375.467)"/>
    </g>
  </g>
  <g id="Group_40" data-name="Group 40" transform="translate(21.59 27.858)">
    <g id="Group_39" data-name="Group 39">
      <rect id="Rectangle_1" data-name="Rectangle 1" class="cls-1" width="1.393" height="1.393"/>
    </g>
  </g>
  <g id="Group_42" data-name="Group 42" transform="translate(18.805 27.858)">
    <g id="Group_41" data-name="Group 41">
      <rect id="Rectangle_2" data-name="Rectangle 2" class="cls-1" width="1.393" height="1.393"/>
    </g>
  </g>
  <g id="Group_44" data-name="Group 44" transform="translate(16.019 27.858)">
    <g id="Group_43" data-name="Group 43">
      <rect id="Rectangle_3" data-name="Rectangle 3" class="cls-1" width="1.393" height="1.393"/>
    </g>
  </g>
  <g id="Group_46" data-name="Group 46" transform="translate(24.377 27.858)">
    <g id="Group_45" data-name="Group 45">
      <rect id="Rectangle_4" data-name="Rectangle 4" class="cls-1" width="1.393" height="1.393"/>
    </g>
  </g>
  <g id="Group_48" data-name="Group 48" transform="translate(0.696 30.645)">
    <g id="Group_47" data-name="Group 47">
      <rect id="Rectangle_5" data-name="Rectangle 5" class="cls-1" width="11.143" height="1.393"/>
    </g>
  </g>
  <g id="Group_50" data-name="Group 50" transform="translate(4.875 27.858)">
    <g id="Group_49" data-name="Group 49">
      <rect id="Rectangle_6" data-name="Rectangle 6" class="cls-1" width="2.785" height="1.393"/>
    </g>
  </g>
  <g id="Group_52" data-name="Group 52" transform="translate(4.875 33.43)">
    <g id="Group_51" data-name="Group 51">
      <rect id="Rectangle_7" data-name="Rectangle 7" class="cls-1" width="2.785" height="1.393"/>
    </g>
  </g>
  <g id="Group_54" data-name="Group 54" transform="translate(29.947 30.645)">
    <g id="Group_53" data-name="Group 53">
      <rect id="Rectangle_8" data-name="Rectangle 8" class="cls-1" width="11.143" height="1.393"/>
    </g>
  </g>
  <g id="Group_56" data-name="Group 56" transform="translate(34.824 31.341)">
    <g id="Group_55" data-name="Group 55">
      <rect id="Rectangle_9" data-name="Rectangle 9" class="cls-1" width="1.393" height="9.751"/>
    </g>
  </g>
  <g id="Group_58" data-name="Group 58" transform="translate(34.126 27.858)">
    <g id="Group_57" data-name="Group 57">
      <rect id="Rectangle_10" data-name="Rectangle 10" class="cls-1" width="2.785" height="1.393"/>
    </g>
  </g>
  <g id="Group_60" data-name="Group 60" transform="translate(32.037 34.824)">
    <g id="Group_59" data-name="Group 59">
      <rect id="Rectangle_11" data-name="Rectangle 11" class="cls-1" width="1.393" height="2.089"/>
    </g>
  </g>
  <g id="Group_62" data-name="Group 62" transform="translate(37.609 34.824)">
    <g id="Group_61" data-name="Group 61">
      <rect id="Rectangle_12" data-name="Rectangle 12" class="cls-1" width="1.393" height="2.089"/>
    </g>
  </g>
  <g id="Group_64" data-name="Group 64" transform="translate(11.84 0)">
    <g id="Group_63" data-name="Group 63" transform="translate(0)">
      <path id="Path_32" data-name="Path 32" class="cls-1" d="M162.97,11.348l-2.58-2.582V.7a.7.7,0,0,0-.7-.7H148.548a.7.7,0,0,0-.7.7v8.07l-2.583,2.582a.7.7,0,0,0,.492,1.188h16.715a.7.7,0,0,0,.492-1.188Zm-15.527-.2,1.6-1.6a.7.7,0,0,0,.2-.492V1.393h9.751v7.66a.7.7,0,0,0,.2.492l1.6,1.6H147.443Z" transform="translate(-145.065 0)"/>
    </g>
  </g>
  <g id="Group_66" data-name="Group 66" transform="translate(34.824 15.322)">
    <g id="Group_65" data-name="Group 65">
      <path id="Path_33" data-name="Path 33" class="cls-1" d="M429.452,187.733a2.788,2.788,0,0,0-2.785,2.785v.7h1.393v-.7a1.393,1.393,0,1,1,2.785,0v7.662h1.393v-7.662A2.789,2.789,0,0,0,429.452,187.733Z" transform="translate(-426.667 -187.733)"/>
    </g>
  </g>
  <g id="Group_68" data-name="Group 68" transform="translate(37.609 22.287)">
    <g id="Group_67" data-name="Group 67">
      <rect id="Rectangle_13" data-name="Rectangle 13" class="cls-1" width="2.089" height="1.393"/>
    </g>
  </g>
  <g id="Group_70" data-name="Group 70" transform="translate(12.538 20.894)">
    <g id="Group_69" data-name="Group 69" transform="translate(0 0)">
      <path id="Path_34" data-name="Path 34" class="cls-1" d="M161.262,256H154.3a.7.7,0,0,0-.7.7v4.179a.7.7,0,0,0,.7.7h6.964a.7.7,0,0,0,.7-.7V256.7a.7.7,0,0,0-.7-.7Zm-.7,4.179h-5.572v-2.785h5.572Z" transform="translate(-153.602 -256)"/>
    </g>
  </g>
  <g id="Group_72" data-name="Group 72" transform="translate(11.143 22.287)">
    <g id="Group_71" data-name="Group 71">
      <rect id="Rectangle_14" data-name="Rectangle 14" class="cls-1" width="2.089" height="1.393"/>
    </g>
  </g>
  <g id="Group_74" data-name="Group 74" transform="translate(20.198 22.287)">
    <g id="Group_73" data-name="Group 73">
      <rect id="Rectangle_15" data-name="Rectangle 15" class="cls-1" width="2.089" height="1.393"/>
    </g>
  </g>
  <g id="Group_76" data-name="Group 76" transform="translate(0 0)">
    <g id="Group_75" data-name="Group 75" transform="translate(0)">
      <path id="Path_35" data-name="Path 35" class="cls-1" d="M11.84,0H.7A.7.7,0,0,0,0,.7V9.054a.7.7,0,0,0,.7.7H11.84a.7.7,0,0,0,.7-.7V.7a.7.7,0,0,0-.7-.7Zm-.7,8.358H1.393V1.393h9.75Z" transform="translate(0)"/>
    </g>
  </g>
  <g id="Group_78" data-name="Group 78" transform="translate(8.358 4.179)">
    <g id="Group_77" data-name="Group 77">
      <rect id="Rectangle_16" data-name="Rectangle 16" class="cls-1" width="1.393" height="2.785"/>
    </g>
  </g>
  <g id="Group_80" data-name="Group 80" transform="translate(29.253 0)">
    <g id="Group_79" data-name="Group 79" transform="translate(0)">
      <path id="Path_36" data-name="Path 36" class="cls-1" d="M370.24,0H359.1a.7.7,0,0,0-.7.7V9.054a.7.7,0,0,0,.7.7H370.24a.7.7,0,0,0,.7-.7V.7A.7.7,0,0,0,370.24,0Zm-.7,8.358h-9.751V1.393h9.751Z" transform="translate(-358.401)"/>
    </g>
  </g>
  <g id="Group_82" data-name="Group 82" transform="translate(32.037 4.179)">
    <g id="Group_81" data-name="Group 81">
      <rect id="Rectangle_17" data-name="Rectangle 17" class="cls-1" width="1.393" height="2.785"/>
    </g>
  </g>
  <g id="Group_84" data-name="Group 84" transform="translate(0 13.93)">
    <g id="Group_83" data-name="Group 83">
      <rect id="Rectangle_18" data-name="Rectangle 18" class="cls-1" width="12.536" height="1.393"/>
    </g>
  </g>
  <g id="Group_86" data-name="Group 86" transform="translate(1.393 12.536)">
    <g id="Group_85" data-name="Group 85">
      <rect id="Rectangle_19" data-name="Rectangle 19" class="cls-1" width="1.393" height="6.268"/>
    </g>
  </g>
  <g id="Group_88" data-name="Group 88" transform="translate(0 18.108)">
    <g id="Group_87" data-name="Group 87" transform="translate(0 0)">
      <path id="Path_37" data-name="Path 37" class="cls-1" d="M2.089,221.867a2.089,2.089,0,1,0,2.089,2.089,2.089,2.089,0,0,0-2.089-2.089Zm0,2.785a.7.7,0,1,1,.7-.7.7.7,0,0,1-.7.7Z" transform="translate(0 -221.867)"/>
    </g>
  </g>
  <g id="Group_90" data-name="Group 90" transform="translate(4.179 12.536)">
    <g id="Group_89" data-name="Group 89">
      <rect id="Rectangle_20" data-name="Rectangle 20" class="cls-1" width="1.393" height="6.268"/>
    </g>
  </g>
  <g id="Group_92" data-name="Group 92" transform="translate(2.785 18.108)">
    <g id="Group_91" data-name="Group 91" transform="translate(0 0)">
      <path id="Path_38" data-name="Path 38" class="cls-1" d="M36.222,221.867a2.089,2.089,0,1,0,2.089,2.089,2.089,2.089,0,0,0-2.089-2.089Zm0,2.785a.7.7,0,1,1,.7-.7.7.7,0,0,1-.7.7Z" transform="translate(-34.133 -221.867)"/>
    </g>
  </g>
  <g id="Group_94" data-name="Group 94" transform="translate(6.964 12.536)">
    <g id="Group_93" data-name="Group 93">
      <rect id="Rectangle_21" data-name="Rectangle 21" class="cls-1" width="1.393" height="6.268"/>
    </g>
  </g>
  <g id="Group_96" data-name="Group 96" transform="translate(5.572 18.108)">
    <g id="Group_95" data-name="Group 95" transform="translate(0 0)">
      <path id="Path_39" data-name="Path 39" class="cls-1" d="M70.356,221.867a2.089,2.089,0,1,0,2.089,2.089,2.089,2.089,0,0,0-2.089-2.089Zm0,2.785a.7.7,0,1,1,.7-.7.7.7,0,0,1-.7.7Z" transform="translate(-68.267 -221.867)"/>
    </g>
  </g>
</svg>
