<svg xmlns="http://www.w3.org/2000/svg" viewBox="0 0 17 20">
  <path id="Shape_1" data-name="Shape 1" d="M405.428,234.02a.534.534,0,0,1-.215-.26,6.372,6.372,0,0,1-.211-1.876v-.013a.765.765,0,0,0,0-.1c.024-.816.078-2.733,1.875-3.351l.041-.013a11.815,11.815,0,0,0,3.435-1.565.559.559,0,0,1,.642.915,13.041,13.041,0,0,1-3.779,1.727c-.964.344-1.072,1.375-1.1,2.319,0,.037,0,.07,0,.1a7.105,7.105,0,0,0,.087,1.28,16.516,16.516,0,0,0,14.6,0,7.535,7.535,0,0,0,.086-1.28.935.935,0,0,1,0-.1c-.029-.945-.137-1.976-1.1-2.32A12.869,12.869,0,0,1,416,227.758a.559.559,0,1,1,.642-.914,11.956,11.956,0,0,0,3.435,1.565l.041.013c1.8.613,1.85,2.53,1.875,3.351,0,.037,0,.07,0,.1v.012a6.654,6.654,0,0,1-.2,1.873.559.559,0,0,1-.215.26,17.472,17.472,0,0,1-16.158,0Zm8.091-7.243h-.091a3.8,3.8,0,0,1-2.913-1.264c-1.594-1.8-1.329-4.879-1.3-5.172a4.23,4.23,0,0,1,2.031-3.774,4.614,4.614,0,0,1,2.227-.567h.071a4.594,4.594,0,0,1,2.227.584,4.226,4.226,0,0,1,2.007,3.757c.029.293.293,3.375-1.3,5.172a3.818,3.818,0,0,1-2.918,1.264Zm-3.2-6.366c0,.008,0,.021,0,.033s-.285,2.853,1.027,4.327a2.7,2.7,0,0,0,2.127.886h.041a2.711,2.711,0,0,0,2.132-.886c1.316-1.482,1.026-4.3,1.022-4.327a.076.076,0,0,1,0-.033c-.129-2.808-2.028-3.263-3.145-3.289h-.049C412.566,217.122,410.46,217.441,410.324,220.411Z" transform="translate(-405 -216)"/>
</svg>
