<svg id="Офис" xmlns="http://www.w3.org/2000/svg" viewBox="0 0 60 53.94">
  <defs>
    <style>
      .cls-1 {
        fill: #505961;
      }
    </style>
  </defs>
  <g id="Group_10" data-name="Group 10" transform="translate(0 0)">
    <g id="Group_9" data-name="Group 9" transform="translate(0 0)">
      <path id="Path_5" data-name="Path 5" class="cls-1" d="M57.48,42.25H27.514V39.184h9.8a2.514,2.514,0,0,0,2.52-2.52V20.32a2.514,2.514,0,0,0-2.52-2.52H8.921A2.514,2.514,0,0,0,6.4,20.32V36.664a2.514,2.514,0,0,0,2.52,2.52H18.66v3.133H2.52A2.514,2.514,0,0,0,0,44.837v1.635a2.559,2.559,0,0,0,2.52,2.52H5.858V70.514a1.226,1.226,0,0,0,2.452,0V48.992H32.417V69.218a2.514,2.514,0,0,0,2.52,2.52H52.575a2.514,2.514,0,0,0,2.52-2.52V48.992h2.383A2.514,2.514,0,0,0,60,46.472v-1.7a2.514,2.514,0,0,0-2.52-2.52ZM8.918,36.8c-.067-.068-.137-.068-.137-.137V20.32a.146.146,0,0,1,.137-.137H37.312a.146.146,0,0,1,.137.137V36.664a.146.146,0,0,1-.137.137H8.921Zm16.207,2.52v2.854a.146.146,0,0,1-.137.137h-3.8c-.068-.067-.137-.137-.137-.2V39.321a.146.146,0,0,1,.137-.137h3.806A.146.146,0,0,1,25.125,39.321Zm27.656,29.9a.146.146,0,0,1-.137.137H35.006a.146.146,0,0,1-.137-.137V64.043H52.781Zm0-7.56H34.875V56.074H52.781Zm0-8.036H34.875v-4.5a.146.146,0,0,1,.137-.137H52.65a.146.146,0,0,1,.137.137ZM57.617,46.4a.146.146,0,0,1-.137.137H2.52a.146.146,0,0,1-.137-.137V44.768h.068a.146.146,0,0,1,.137-.137H57.48a.146.146,0,0,1,.137.137Z" transform="translate(0 -17.8)"/>
    </g>
  </g>
  <g id="Group_12" data-name="Group 12" transform="translate(40.794 32.145)">
    <g id="Group_11" data-name="Group 11" transform="translate(0)">
      <path id="Path_6" data-name="Path 6" class="cls-1" d="M244.368,206.6h-3.542a1.226,1.226,0,1,0,0,2.453h3.542a1.226,1.226,0,1,0,0-2.452Z" transform="translate(-239.6 -206.6)"/>
    </g>
  </g>
  <g id="Group_14" data-name="Group 14" transform="translate(40.794 39.842)">
    <g id="Group_13" data-name="Group 13" transform="translate(0 0)">
      <path id="Path_7" data-name="Path 7" class="cls-1" d="M244.368,251.8h-3.542a1.226,1.226,0,1,0,0,2.452h3.542a1.226,1.226,0,1,0,0-2.452Z" transform="translate(-239.6 -251.8)"/>
    </g>
  </g>
  <g id="Group_16" data-name="Group 16" transform="translate(40.794 47.741)">
    <g id="Group_15" data-name="Group 15" transform="translate(0)">
      <path id="Path_8" data-name="Path 8" class="cls-1" d="M244.368,298.2h-3.542a1.226,1.226,0,1,0,0,2.452h3.542a1.226,1.226,0,0,0,0-2.453Z" transform="translate(-239.6 -298.2)"/>
    </g>
  </g>
</svg>
