<svg id="с-у" xmlns="http://www.w3.org/2000/svg" viewBox="0 0 60 56.002">
  <defs>
    <style>
      .cls-1 {
        fill: #505961;
      }
    </style>
  </defs>
  <g id="Group_18" data-name="Group 18" transform="translate(0 0)">
    <g id="Group_17" data-name="Group 17" transform="translate(0 0)">
      <path id="Path_9" data-name="Path 9" class="cls-1" d="M56,46.067H55v-21a8.962,8.962,0,0,0-9-9c-4.427,0-7.609,3.281-7.965,8.091A4.942,4.942,0,0,0,34,29.066a.938.938,0,0,0,1,1h8a.938.938,0,0,0,1-1,4.942,4.942,0,0,0-3.956-4.894c.3-3.178,2.207-6.1,5.957-6.1a6.956,6.956,0,0,1,7,7v21H22.9a4.942,4.942,0,0,0-4.9-4,5.22,5.22,0,0,0-4-2,4.944,4.944,0,0,0-4.4,2.7,5.94,5.94,0,0,0-2.6-.7,4.942,4.942,0,0,0-4.9,4H2a3,3,0,1,0,0,6H3.2l2.7,10.7a7.056,7.056,0,0,0,6.8,5.3h.8l-1.3,2.6a.883.883,0,0,0,.4,1.3.6.6,0,0,0,.4.1,1.05,1.05,0,0,0,.9-.5l1.751-3.5H43.4l1.7,3.4a.962.962,0,0,0,.9.6c.2,0,.3,0,.4-.2a1.054,1.054,0,0,0,.4-1.3l-1.252-2.5a7.08,7.08,0,0,0,6.553-5.2l2.722-10.8H56a3,3,0,1,0,0-6Zm-14.1-18H36.2a3.041,3.041,0,0,1,2.9-2,2.912,2.912,0,0,1,2.8,2ZM7,44.066a3.36,3.36,0,0,1,2.4,1.1.906.906,0,0,0,1,.3.969.969,0,0,0,.7-.8,3.1,3.1,0,0,1,3-2.6,2.794,2.794,0,0,1,2.6,1.5,1,1,0,0,0,1.1.5h.3a2.914,2.914,0,0,1,2.8,2H4.2a2.914,2.914,0,0,1,2.8-2Zm43.3,18.2a5.132,5.132,0,0,1-4.9,3.8H12.8a5.132,5.132,0,0,1-4.9-3.8l-2.6-10.2H52.7Zm5.7-12.2H2a1,1,0,1,1,0-2H56a1,1,0,1,1,0,2Z" transform="translate(1 -16.067)"/>
      <path id="Path_10" data-name="Path 10" class="cls-1" d="M298.668,155.1a.937.937,0,0,0,1-1v-.5a1,1,0,1,0-2,0v.5a.938.938,0,0,0,1,1Z" transform="translate(-262.668 -136.601)"/>
      <path id="Path_11" data-name="Path 11" class="cls-1" d="M298.668,189.834a1,1,0,0,0,1-1v-1.1a1,1,0,1,0-2,0v1.1a.937.937,0,0,0,1,1Z" transform="translate(-262.668 -166.734)"/>
      <path id="Path_12" data-name="Path 12" class="cls-1" d="M298.668,227.634a.937.937,0,0,0,1-1v-.5a1,1,0,0,0-2,0v.5a.938.938,0,0,0,1,1Z" transform="translate(-262.668 -200.634)"/>
      <path id="Path_13" data-name="Path 13" class="cls-1" d="M332.8,155.1a.937.937,0,0,0,1-1v-.5a1,1,0,1,0-2,0v.5a.938.938,0,0,0,1,1Z" transform="translate(-292.802 -136.601)"/>
      <path id="Path_14" data-name="Path 14" class="cls-1" d="M331.8,188.833a.938.938,0,0,0,1,1,1,1,0,0,0,1-1v-1.1a1,1,0,0,0-2,0Z" transform="translate(-292.801 -166.733)"/>
      <path id="Path_15" data-name="Path 15" class="cls-1" d="M331.8,226.633a1,1,0,1,0,2,0v-.5a1,1,0,0,0-2,0Z" transform="translate(-292.8 -200.633)"/>
      <path id="Path_16" data-name="Path 16" class="cls-1" d="M366.935,155.1a.938.938,0,0,0,1-1v-.5a1,1,0,1,0-2,0v.5a.938.938,0,0,0,1,1Z" transform="translate(-322.936 -136.601)"/>
      <path id="Path_17" data-name="Path 17" class="cls-1" d="M365.934,188.833a.937.937,0,0,0,1,1,1,1,0,0,0,1-1v-1.1a1,1,0,0,0-2,0v1.1Z" transform="translate(-322.935 -166.733)"/>
      <path id="Path_18" data-name="Path 18" class="cls-1" d="M365.933,226.633a1,1,0,0,0,2,0v-.5a1,1,0,0,0-2,0Z" transform="translate(-322.934 -200.633)"/>
    </g>
  </g>
</svg>
