<svg xmlns="http://www.w3.org/2000/svg" viewBox="0 0 42.995 45.018">
  <defs>
    <style>
      .cls-1 {
        fill: #505961;
      }
    </style>
  </defs>
  <path id="Shape_1" data-name="Shape 1" class="cls-1" d="M39.453,33.97l-.161-.045a24.951,24.951,0,0,1-4.15-1.62c-3.675-1.4-4.631-2.41-4.875-2.886-.008-.017-.015-.036-.023-.052l-.023-3.212a15.9,15.9,0,0,0,3.371-9.318A16.169,16.169,0,0,0,31.745,5.859V5.835h-.012A14.584,14.584,0,0,0,28.98,2.5,12.685,12.685,0,0,0,21.112,0a13.919,13.919,0,0,0-7.961,2.5C7.926,6.077,8.454,15.1,8.454,15.1a9.955,9.955,0,0,0,1.023.179q-.072.758-.073,1.554a15.9,15.9,0,0,0,3.371,9.318l-.023,3.212c-.008.017-.015.036-.023.052-.245.477-1.2,1.486-4.875,2.886a24.951,24.951,0,0,1-4.15,1.62l-.161.045A5.145,5.145,0,0,0,0,38.853v6.164H43V38.853A5.145,5.145,0,0,0,39.453,33.97ZM30.842,8.194a13.6,13.6,0,0,1,1.032,3.794c.026.21.048.415.065.615a7.59,7.59,0,0,0-1.006-1.468A5.622,5.622,0,0,0,29.561,10,4.278,4.278,0,0,1,30.842,8.194ZM10.7,10.42a13.815,13.815,0,0,1,1.2-3.629,7.261,7.261,0,0,1,2.306-2.746,12.018,12.018,0,0,1,6.9-2.169,10.928,10.928,0,0,1,6.609,2.013,12.852,12.852,0,0,1,2.232,2.638A5.928,5.928,0,0,0,27.8,9.354a5.6,5.6,0,0,0-.949-.08,9.377,9.377,0,0,0-4.611,1.447,20.906,20.906,0,0,1-10.36,2.837c-.589,0-1.107-.029-1.537-.067A21,21,0,0,1,10.7,10.42ZM17.12,43.141H1.875V38.853A3.269,3.269,0,0,1,4.1,35.762l.1-.03a18.085,18.085,0,0,0,3.5-1.309c.3-.143.56-.269.813-.365A19.686,19.686,0,0,0,12.9,31.875l3.982,2.083.688-.583L18.06,35.8ZM14.281,30.478c.041-.067.081-.135.117-.2a1.659,1.659,0,0,0,.07-.152l.157-.346,0-.4.008-1.084a15.786,15.786,0,0,0,3.147,2.445l-1.144.97ZM21.5,43.141H19.011l.841-6.564h3.29l.949,6.564Zm-2.287-11.15.456-.387a5.9,5.9,0,0,0,1.831.324,6.041,6.041,0,0,0,1.933-.359l.374.317L23.243,34.7h-3.49Zm2.287-1.94a6.106,6.106,0,0,1-2.875-.989,14.89,14.89,0,0,1-3.488-2.97,14.513,14.513,0,0,1-3.856-9.255q0-.719.069-1.411c.17,0,.345.007.526.007a22.742,22.742,0,0,0,11.29-3.084,7.622,7.622,0,0,1,3.682-1.2c2.361,0,3.431,2,4.074,3.818a3.57,3.57,0,0,0,.784,1.342c.007.174.011.351.011.528a14.513,14.513,0,0,1-3.856,9.255,14.856,14.856,0,0,1-3.488,2.97A6.107,6.107,0,0,1,21.5,30.051Zm7.252.484L26.5,31.711l-1.2-1.019a15.925,15.925,0,0,0,3.062-2.4l.008,1.084,0,.4.155.346c.014.03.037.087.071.152C28.643,30.363,28.7,30.449,28.75,30.535ZM34.7,43.141H29.07V41.267H34.7Zm6.423,0H36.573V39.39H33.76a.937.937,0,0,0-.938-.937H30.947a.937.937,0,0,0-.938.937H27.2v3.751H25.986l-1.058-7.309.512-2.561.812.687,3.9-2.04a19.946,19.946,0,0,0,4.324,2.14c.251.095.511.221.812.364a18.085,18.085,0,0,0,3.5,1.309l.1.03a3.267,3.267,0,0,1,2.227,3.091Z"/>
</svg>
