<svg xmlns="http://www.w3.org/2000/svg" viewBox="0 0 45.024 45.047">
  <defs>
    <style>
      .cls-1 {
        fill: #505961;
      }
    </style>
  </defs>
  <path id="Shape_1" data-name="Shape 1" class="cls-1" d="M23.322,43.923,4.011,24.6A3.81,3.81,0,0,1,2.936,22.5L.05,4.442A3.834,3.834,0,0,1,4.44.05L22.487,2.937a3.81,3.81,0,0,1,2.105,1.075L43.9,23.333a3.84,3.84,0,0,1,0,5.423L28.743,43.923a3.832,3.832,0,0,1-5.421,0ZM2.393,2.394a2.019,2.019,0,0,0-.572,1.765L4.707,22.214a2.027,2.027,0,0,0,.572,1.12l19.312,19.32a2.04,2.04,0,0,0,2.884,0L42.636,27.486a2.043,2.043,0,0,0,0-2.885h0L23.324,5.281a2.027,2.027,0,0,0-1.12-.572L4.156,1.822a2.1,2.1,0,0,0-.33-.026A2.014,2.014,0,0,0,2.393,2.394ZM20.175,32.042a.9.9,0,0,1,0-1.269l8.252-8.255A.9.9,0,0,1,29.7,23.786l-8.252,8.255a.9.9,0,0,1-1.269,0Zm-3.588-3.589a.9.9,0,0,1,0-1.269L27.171,16.595a.9.9,0,1,1,1.269,1.269L17.856,28.452a.9.9,0,0,1-1.269,0Zm13.9-6.73a.9.9,0,0,1,0-1.269l.269-.269a.9.9,0,0,1,1.269,1.269l-.269.269a.9.9,0,0,1-1.269,0ZM4.306,7.538a3.229,3.229,0,1,1,3.229,3.23A3.233,3.233,0,0,1,4.306,7.538Zm1.794,0A1.435,1.435,0,1,0,7.535,6.1,1.437,1.437,0,0,0,6.1,7.538Z"/>
</svg>
