<svg id="Спальня" xmlns="http://www.w3.org/2000/svg" viewBox="0 0 60 42.548">
  <defs>
    <style>
      .cls-1 {
        fill: #505961;
      }
    </style>
  </defs>
  <g id="Group_19" data-name="Group 19" transform="translate(0 0)">
    <path id="Path_19" data-name="Path 19" class="cls-1" d="M55,92.293V80.916a6.259,6.259,0,0,0-6.249-6.249H11.25A6.259,6.259,0,0,0,5,80.916V92.293a6.26,6.26,0,0,0-5,6.124v17.5a1.251,1.251,0,1,0,2.5,0v-3.75h55v3.75a1.251,1.251,0,1,0,2.5,0v-17.5a6.26,6.26,0,0,0-5-6.124ZM7.5,80.916a3.75,3.75,0,0,1,3.75-3.75h37.5a3.75,3.75,0,0,1,3.75,3.75v11.25H49.058a3.716,3.716,0,0,0,.126-2.16l-1.251-5A3.75,3.75,0,0,0,44.3,82.165H36.249a3.75,3.75,0,0,0-3.75,3.75v5a3.707,3.707,0,0,0,.231,1.251H27.27a3.707,3.707,0,0,0,.231-1.251v-5a3.75,3.75,0,0,0-3.75-3.75H15.7a3.75,3.75,0,0,0-3.637,2.84l-1.251,5a3.716,3.716,0,0,0,.126,2.158H7.5Zm39.031,10.77a1.241,1.241,0,0,1-.984.48h-9.3A1.251,1.251,0,0,1,35,90.915v-5a1.251,1.251,0,0,1,1.251-1.251H44.3a1.249,1.249,0,0,1,1.213.947l1.251,5a1.236,1.236,0,0,1-.229,1.072ZM25,85.915v5a1.251,1.251,0,0,1-1.251,1.251h-9.3a1.249,1.249,0,0,1-1.213-1.552l1.251-5.01a1.258,1.258,0,0,1,1.211-.937h8.047A1.251,1.251,0,0,1,25,85.915Zm32.5,23.752H2.5v-2.5h55v2.5Zm0-5H2.5V98.417a3.75,3.75,0,0,1,3.75-3.75h47.5a3.75,3.75,0,0,1,3.75,3.75Z" transform="translate(0.001 -74.667)"/>
  </g>
</svg>
