<svg xmlns="http://www.w3.org/2000/svg" viewBox="0 0 34 67.938">
  <defs>
    <style>
      .cls-1 {
        fill: #502c5a;
      }

      .cls-2 {
        fill: #505961;
      }
    </style>
  </defs>
  <g id="Group_138" data-name="Group 138" transform="translate(8745 -8900)">
    <g id="_003-computer-graphic" data-name="003-computer-graphic" transform="translate(-9553 8169)">
      <g id="Group_5" data-name="Group 5" transform="translate(808 766)">
        <g id="Group_4" data-name="Group 4">
          <path id="Path_5" data-name="Path 5" class="cls-1" d="M32.406,8H1.594A1.594,1.594,0,0,0,0,9.594V32.969a.531.531,0,0,0,.531.531h12.1l-.85,4.25H10.625a.531.531,0,0,0-.531.531v1.594H9.031v1.063H24.969V39.875H23.906V38.281a.531.531,0,0,0-.531-.531H22.216l-.85-4.25h12.1A.531.531,0,0,0,34,32.969V9.594A1.594,1.594,0,0,0,32.406,8ZM21.781,38.813h1.063v1.063H11.156V38.813H21.781ZM12.867,37.75l.849-4.25h6.567l.85,4.25Zm20.071-5.312H1.063V27.656H32.938ZM25.5,12.781H21.25a.531.531,0,0,0-.531.531v4.781h1.063v-4.25h3.188v2.125H22.844v1.063h2.125v2.656H22.844V20.75h2.125v2.656H22.844v1.063h2.125v2.125H21.781v-4.25H20.719v4.25H18.594V23.938c0-2.168,2.633-2.645,2.743-2.664a.531.531,0,0,0,.368-.8l-4.781-7.969a.552.552,0,0,0-.911,0l-4.781,7.969a.531.531,0,0,0,.367.8c.112.019,2.745.5,2.745,2.664v2.656H12.219v-4.25H11.156v4.25h-.531V17.031h.531v1.063h1.063V16.5a.525.525,0,0,0-.043-.209l-1.594-3.719a.531.531,0,0,0-.976,0L8.012,16.291a.525.525,0,0,0-.043.209V26.594H3.719V11.719H30.281V26.594h-4.25V13.313A.531.531,0,0,0,25.5,12.781ZM15.406,25v-.531h2.125V25Zm2.125,1.063v.531H15.406v-.531Zm-2.164-2.656a3.965,3.965,0,0,0-2.858-2.994L15.938,14.7v4.457H17V14.7l3.428,5.713a3.959,3.959,0,0,0-2.858,2.994ZM9.3,15.969l.789-1.841.789,1.841Zm.258,1.063v9.563H9.031V17.031Zm23.375,9.563H31.344V11.188a.531.531,0,0,0-.531-.531H3.188a.531.531,0,0,0-.531.531V26.594H1.063v-17a.531.531,0,0,1,.531-.531H32.406a.531.531,0,0,1,.531.531Z" transform="translate(0 -8)"/>
        </g>
      </g>
      <g id="Group_7" data-name="Group 7" transform="translate(823.406 786.188)">
        <g id="Group_6" data-name="Group 6">
          <path id="Path_6" data-name="Path 6" class="cls-1" d="M233.594,312a1.594,1.594,0,1,0,1.594,1.594A1.594,1.594,0,0,0,233.594,312Zm0,2.125a.531.531,0,1,1,.531-.531A.531.531,0,0,1,233.594,314.125Z" transform="translate(-232 -312)"/>
        </g>
      </g>
    </g>
    <g id="_003-computer-graphic-2" data-name="003-computer-graphic" transform="translate(-9553 8134)">
      <g id="Group_5-2" data-name="Group 5" transform="translate(808 766)">
        <g id="Group_4-2" data-name="Group 4">
          <path id="Path_5-2" data-name="Path 5" class="cls-2" d="M32.406,8H1.594A1.594,1.594,0,0,0,0,9.594V32.969a.531.531,0,0,0,.531.531h12.1l-.85,4.25H10.625a.531.531,0,0,0-.531.531v1.594H9.031v1.063H24.969V39.875H23.906V38.281a.531.531,0,0,0-.531-.531H22.216l-.85-4.25h12.1A.531.531,0,0,0,34,32.969V9.594A1.594,1.594,0,0,0,32.406,8ZM21.781,38.813h1.063v1.063H11.156V38.813H21.781ZM12.867,37.75l.849-4.25h6.567l.85,4.25Zm20.071-5.312H1.063V27.656H32.938ZM25.5,12.781H21.25a.531.531,0,0,0-.531.531v4.781h1.063v-4.25h3.188v2.125H22.844v1.063h2.125v2.656H22.844V20.75h2.125v2.656H22.844v1.063h2.125v2.125H21.781v-4.25H20.719v4.25H18.594V23.938c0-2.168,2.633-2.645,2.743-2.664a.531.531,0,0,0,.368-.8l-4.781-7.969a.552.552,0,0,0-.911,0l-4.781,7.969a.531.531,0,0,0,.367.8c.112.019,2.745.5,2.745,2.664v2.656H12.219v-4.25H11.156v4.25h-.531V17.031h.531v1.063h1.063V16.5a.525.525,0,0,0-.043-.209l-1.594-3.719a.531.531,0,0,0-.976,0L8.012,16.291a.525.525,0,0,0-.043.209V26.594H3.719V11.719H30.281V26.594h-4.25V13.313A.531.531,0,0,0,25.5,12.781ZM15.406,25v-.531h2.125V25Zm2.125,1.063v.531H15.406v-.531Zm-2.164-2.656a3.965,3.965,0,0,0-2.858-2.994L15.938,14.7v4.457H17V14.7l3.428,5.713a3.959,3.959,0,0,0-2.858,2.994ZM9.3,15.969l.789-1.841.789,1.841Zm.258,1.063v9.563H9.031V17.031Zm23.375,9.563H31.344V11.188a.531.531,0,0,0-.531-.531H3.188a.531.531,0,0,0-.531.531V26.594H1.063v-17a.531.531,0,0,1,.531-.531H32.406a.531.531,0,0,1,.531.531Z" transform="translate(0 -8)"/>
        </g>
      </g>
      <g id="Group_7-2" data-name="Group 7" transform="translate(823.406 786.188)">
        <g id="Group_6-2" data-name="Group 6">
          <path id="Path_6-2" data-name="Path 6" class="cls-2" d="M233.594,312a1.594,1.594,0,1,0,1.594,1.594A1.594,1.594,0,0,0,233.594,312Zm0,2.125a.531.531,0,1,1,.531-.531A.531.531,0,0,1,233.594,314.125Z" transform="translate(-232 -312)"/>
        </g>
      </g>
    </g>
  </g>
</svg>
