<svg xmlns="http://www.w3.org/2000/svg" viewBox="0 0 34 68.072">
  <defs>
    <style>
      .cls-1 {
        fill: #505961;
      }

      .cls-2 {
        fill: #502c5a;
      }
    </style>
  </defs>
  <g id="Group_136" data-name="Group 136" transform="translate(8818 -8900)">
    <g id="_004-interior-designer" data-name="004-interior-designer" transform="translate(-9204 8136)">
      <path id="Path_7" data-name="Path 7" class="cls-1" d="M143.341,60.952l4.642-1a.441.441,0,0,0,.339-.523l-.588-2.743a.441.441,0,0,0-.523-.338l-4.642,1a.441.441,0,0,0-.339.523l.588,2.743a.44.44,0,0,0,.523.338Zm3.623-3.646.4,1.881-3.78.81-.4-1.881Z" transform="translate(254.226 711.333)"/>
      <path id="Path_8" data-name="Path 8" class="cls-1" d="M156.094,120.447l4.642-1a.441.441,0,0,0,.339-.523l-.588-2.743a.441.441,0,0,0-.523-.338l-4.642,1a.441.441,0,0,0-.339.523l.588,2.743a.441.441,0,0,0,.431.348A.447.447,0,0,0,156.094,120.447Zm3.623-3.646.4,1.881-3.78.81-.4-1.881Z" transform="translate(242.41 656.207)"/>
      <path id="Path_9" data-name="Path 9" class="cls-1" d="M34.682,119.678l-3.864,2.759a.441.441,0,0,0-.1.615l1.63,2.283a.441.441,0,0,0,.615.1l3.863-2.759a.441.441,0,0,0,.1-.615l-1.63-2.283A.441.441,0,0,0,34.682,119.678Zm1.272,2.539-3.146,2.247L31.689,122.9l3.146-2.247Z" transform="translate(357.616 652.724)"/>
      <path id="Path_10" data-name="Path 10" class="cls-1" d="M66.073,172.57l1.63,2.283a.441.441,0,0,0,.615.1l3.864-2.759a.441.441,0,0,0,.1-.615l-1.63-2.283a.441.441,0,0,0-.615-.1l-3.864,2.759A.441.441,0,0,0,66.073,172.57Zm4.12-2.4,1.118,1.566-3.146,2.246-1.118-1.566Z" transform="translate(324.856 606.843)"/>
      <path id="Path_11" data-name="Path 11" class="cls-1" d="M101.355,221.759a.441.441,0,0,0,.076.329l1.63,2.283a.441.441,0,0,0,.615.1l3.864-2.759a.441.441,0,0,0,.1-.615l-1.63-2.283a.441.441,0,0,0-.615-.1l-3.864,2.759A.44.44,0,0,0,101.355,221.759Zm4.2-2.071,1.118,1.566-3.146,2.247-1.118-1.566Z" transform="translate(292.095 560.962)"/>
      <path id="Path_12" data-name="Path 12" class="cls-1" d="M136.712,271.278a.441.441,0,0,0,.076.329l1.63,2.283a.441.441,0,0,0,.615.1l3.864-2.759a.441.441,0,0,0,.1-.615l-1.63-2.283a.441.441,0,0,0-.615-.1l-3.864,2.759A.44.44,0,0,0,136.712,271.278Zm4.2-2.072,1.118,1.566-3.146,2.247-1.118-1.566Z" transform="translate(259.335 515.08)"/>
      <path id="Path_13" data-name="Path 13" class="cls-1" d="M172.145,321.124l1.63,2.283a.441.441,0,0,0,.615.1l3.863-2.759a.441.441,0,0,0,.1-.615l-1.63-2.283a.441.441,0,0,0-.615-.1l-3.863,2.759A.441.441,0,0,0,172.145,321.124Zm4.12-2.4,1.118,1.566-3.146,2.246-1.118-1.566Z" transform="translate(226.574 469.2)"/>
      <path id="Path_14" data-name="Path 14" class="cls-1" d="M282.638,37.39l4.621,1.089a.441.441,0,0,0,.53-.328l.643-2.731a.441.441,0,0,0-.328-.53L283.483,33.8a.44.44,0,0,0-.53.328l-.643,2.731a.441.441,0,0,0,.328.53Zm1.072-2.63,3.763.887-.441,1.873-3.763-.887Z" transform="translate(124.436 732.228)"/>
      <path id="Path_15" data-name="Path 15" class="cls-1" d="M268.683,96.615,273.3,97.7a.441.441,0,0,0,.53-.328l.643-2.731a.441.441,0,0,0-.328-.53l-4.621-1.089a.44.44,0,0,0-.53.328l-.643,2.731a.441.441,0,0,0,.328.53Zm1.072-2.63,3.763.887-.441,1.873-3.763-.887Z" transform="translate(137.366 677.354)"/>
      <path id="Path_16" data-name="Path 16" class="cls-1" d="M33.747,9.975,26.66,6.636a.441.441,0,0,0-.587.211l-.1.2-1.961-.706a.441.441,0,0,0-.564.265l-.113.313-2.532-.6a.44.44,0,0,0-.53.328L18.43,14.5,17.11,8.34A.44.44,0,0,0,16.587,8L8.926,9.643a.441.441,0,0,0-.339.523l1.33,6.2-2.742-3.84a.441.441,0,0,0-.615-.1L.185,16.978a.441.441,0,0,0-.1.615L15.51,39.2a.441.441,0,0,0,.615.1L22.5,34.75a.438.438,0,0,0,.142-.171h0L33.958,10.561A.441.441,0,0,0,33.747,9.975ZM20.169,22.609l2.665.628-.441,1.872-1.777-.419Zm1.34,6.251-.3-1.416.6.142Zm6.785-18.223.35.126-.652,1.81-.142-.051Zm-2.522,10.7.821-2.283a.44.44,0,0,0-.163-.511l.184-.783a.435.435,0,0,0,.542-.271l.951-2.64a.441.441,0,0,0-.265-.564l-.377-.136.181-.766.461.166a.44.44,0,0,0,.564-.265l.951-2.639a.441.441,0,0,0-.265-.564l-.86-.31.191-.812,1.986.715L24.441,26.991ZM21.036,7.283,27.8,8.877,22.265,32.384l-.424-1.978a.44.44,0,0,0,.284-.315l.643-2.731a.441.441,0,0,0-.328-.53L21,26.491l-.181-.846,1.8.424a.44.44,0,0,0,.53-.328l.644-2.73a.441.441,0,0,0-.328-.53l-3.5-.825-.181-.846,3.861.909a.44.44,0,0,0,.53-.328l.643-2.731a.441.441,0,0,0-.328-.53L19.87,17.042a.441.441,0,0,0-.53.328l-.154.652-.324-1.512ZM19.655,19.874,20.1,18l3.763.886-.441,1.873ZM9.542,10.413l6.8-1.458,5.028,23.451-1.112-1.558a.44.44,0,0,0,.038-.292l-.588-2.743a.44.44,0,0,0-.523-.338l-1.158.248-.495-.693,1.489-.319a.44.44,0,0,0,.338-.523l-.588-2.743a.44.44,0,0,0-.523-.338l-3.051.654-.5-.694,3.383-.725a.441.441,0,0,0,.339-.523l-.588-2.743a.44.44,0,0,0-.523-.338l-4.641,1a.439.439,0,0,0-.244.149l-1.219-1.707Zm9.57,18.833-.529-.741.354-.076Zm-3.359-4.7L18,24.06l.4,1.882-1.432.307Zm-2.291-3.209-.179-.833,3.78-.81.4,1.882-3.325.713Zm2.509,17L1.056,17.44,6.714,13.4,21.63,34.289Zm9.841-12.546,2.717-7.547a.438.438,0,0,0,.2-.206l1.2-2.538a.44.44,0,0,0-.2-.581l.266-.74.057.027a.441.441,0,0,0,.586-.211l1.2-2.538a.441.441,0,0,0-.211-.586l-.373-.176L31.53,9.9l1.442.68Z" transform="translate(386 757.688)"/>
    </g>
    <g id="_004-interior-designer-2" data-name="004-interior-designer" transform="translate(-9286 8171)">
      <path id="Path_7-2" data-name="Path 7" class="cls-2" d="M143.341,60.952l4.642-1a.441.441,0,0,0,.339-.523l-.588-2.743a.441.441,0,0,0-.523-.338l-4.642,1a.441.441,0,0,0-.339.523l.588,2.743a.44.44,0,0,0,.523.338Zm3.623-3.646.4,1.881-3.78.81-.4-1.881Z" transform="translate(336.226 711.333)"/>
      <path id="Path_8-2" data-name="Path 8" class="cls-2" d="M156.094,120.447l4.642-1a.441.441,0,0,0,.339-.523l-.588-2.743a.441.441,0,0,0-.523-.338l-4.642,1a.441.441,0,0,0-.339.523l.588,2.743a.441.441,0,0,0,.431.348A.447.447,0,0,0,156.094,120.447Zm3.623-3.646.4,1.881-3.78.81-.4-1.881Z" transform="translate(324.41 656.207)"/>
      <path id="Path_9-2" data-name="Path 9" class="cls-2" d="M34.682,119.678l-3.864,2.759a.441.441,0,0,0-.1.615l1.63,2.283a.441.441,0,0,0,.615.1l3.863-2.759a.441.441,0,0,0,.1-.615l-1.63-2.283A.441.441,0,0,0,34.682,119.678Zm1.272,2.539-3.146,2.247L31.689,122.9l3.146-2.247Z" transform="translate(439.616 652.724)"/>
      <path id="Path_10-2" data-name="Path 10" class="cls-2" d="M66.073,172.57l1.63,2.283a.441.441,0,0,0,.615.1l3.864-2.759a.441.441,0,0,0,.1-.615l-1.63-2.283a.441.441,0,0,0-.615-.1l-3.864,2.759A.441.441,0,0,0,66.073,172.57Zm4.12-2.4,1.118,1.566-3.146,2.246-1.118-1.566Z" transform="translate(406.856 606.843)"/>
      <path id="Path_11-2" data-name="Path 11" class="cls-2" d="M101.355,221.759a.441.441,0,0,0,.076.329l1.63,2.283a.441.441,0,0,0,.615.1l3.864-2.759a.441.441,0,0,0,.1-.615l-1.63-2.283a.441.441,0,0,0-.615-.1l-3.864,2.759A.44.44,0,0,0,101.355,221.759Zm4.2-2.071,1.118,1.566-3.146,2.247-1.118-1.566Z" transform="translate(374.095 560.962)"/>
      <path id="Path_12-2" data-name="Path 12" class="cls-2" d="M136.712,271.278a.441.441,0,0,0,.076.329l1.63,2.283a.441.441,0,0,0,.615.1l3.864-2.759a.441.441,0,0,0,.1-.615l-1.63-2.283a.441.441,0,0,0-.615-.1l-3.864,2.759A.44.44,0,0,0,136.712,271.278Zm4.2-2.072,1.118,1.566-3.146,2.247-1.118-1.566Z" transform="translate(341.335 515.08)"/>
      <path id="Path_13-2" data-name="Path 13" class="cls-2" d="M172.145,321.124l1.63,2.283a.441.441,0,0,0,.615.1l3.863-2.759a.441.441,0,0,0,.1-.615l-1.63-2.283a.441.441,0,0,0-.615-.1l-3.863,2.759A.441.441,0,0,0,172.145,321.124Zm4.12-2.4,1.118,1.566-3.146,2.246-1.118-1.566Z" transform="translate(308.574 469.2)"/>
      <path id="Path_14-2" data-name="Path 14" class="cls-2" d="M282.638,37.39l4.621,1.089a.441.441,0,0,0,.53-.328l.643-2.731a.441.441,0,0,0-.328-.53L283.483,33.8a.44.44,0,0,0-.53.328l-.643,2.731a.441.441,0,0,0,.328.53Zm1.072-2.63,3.763.887-.441,1.873-3.763-.887Z" transform="translate(206.436 732.228)"/>
      <path id="Path_15-2" data-name="Path 15" class="cls-2" d="M268.683,96.615,273.3,97.7a.441.441,0,0,0,.53-.328l.643-2.731a.441.441,0,0,0-.328-.53l-4.621-1.089a.44.44,0,0,0-.53.328l-.643,2.731a.441.441,0,0,0,.328.53Zm1.072-2.63,3.763.887-.441,1.873-3.763-.887Z" transform="translate(219.366 677.354)"/>
      <path id="Path_16-2" data-name="Path 16" class="cls-2" d="M33.747,9.975,26.66,6.636a.441.441,0,0,0-.587.211l-.1.2-1.961-.706a.441.441,0,0,0-.564.265l-.113.313-2.532-.6a.44.44,0,0,0-.53.328L18.43,14.5,17.11,8.34A.44.44,0,0,0,16.587,8L8.926,9.643a.441.441,0,0,0-.339.523l1.33,6.2-2.742-3.84a.441.441,0,0,0-.615-.1L.185,16.978a.441.441,0,0,0-.1.615L15.51,39.2a.441.441,0,0,0,.615.1L22.5,34.75a.438.438,0,0,0,.142-.171h0L33.958,10.561A.441.441,0,0,0,33.747,9.975ZM20.169,22.609l2.665.628-.441,1.872-1.777-.419Zm1.34,6.251-.3-1.416.6.142Zm6.785-18.223.35.126-.652,1.81-.142-.051Zm-2.522,10.7.821-2.283a.44.44,0,0,0-.163-.511l.184-.783a.435.435,0,0,0,.542-.271l.951-2.64a.441.441,0,0,0-.265-.564l-.377-.136.181-.766.461.166a.44.44,0,0,0,.564-.265l.951-2.639a.441.441,0,0,0-.265-.564l-.86-.31.191-.812,1.986.715L24.441,26.991ZM21.036,7.283,27.8,8.877,22.265,32.384l-.424-1.978a.44.44,0,0,0,.284-.315l.643-2.731a.441.441,0,0,0-.328-.53L21,26.491l-.181-.846,1.8.424a.44.44,0,0,0,.53-.328l.644-2.73a.441.441,0,0,0-.328-.53l-3.5-.825-.181-.846,3.861.909a.44.44,0,0,0,.53-.328l.643-2.731a.441.441,0,0,0-.328-.53L19.87,17.042a.441.441,0,0,0-.53.328l-.154.652-.324-1.512ZM19.655,19.874,20.1,18l3.763.886-.441,1.873ZM9.542,10.413l6.8-1.458,5.028,23.451-1.112-1.558a.44.44,0,0,0,.038-.292l-.588-2.743a.44.44,0,0,0-.523-.338l-1.158.248-.495-.693,1.489-.319a.44.44,0,0,0,.338-.523l-.588-2.743a.44.44,0,0,0-.523-.338l-3.051.654-.5-.694,3.383-.725a.441.441,0,0,0,.339-.523l-.588-2.743a.44.44,0,0,0-.523-.338l-4.641,1a.439.439,0,0,0-.244.149l-1.219-1.707Zm9.57,18.833-.529-.741.354-.076Zm-3.359-4.7L18,24.06l.4,1.882-1.432.307Zm-2.291-3.209-.179-.833,3.78-.81.4,1.882-3.325.713Zm2.509,17L1.056,17.44,6.714,13.4,21.63,34.289Zm9.841-12.546,2.717-7.547a.438.438,0,0,0,.2-.206l1.2-2.538a.44.44,0,0,0-.2-.581l.266-.74.057.027a.441.441,0,0,0,.586-.211l1.2-2.538a.441.441,0,0,0-.211-.586l-.373-.176L31.53,9.9l1.442.68Z" transform="translate(468 757.688)"/>
    </g>
  </g>
</svg>
