<svg xmlns="http://www.w3.org/2000/svg" viewBox="0 0 32 70.154">
  <defs>
    <style>
      .cls-1 {
        fill: #502c5a;
      }

      .cls-2 {
        fill: #505961;
      }
    </style>
  </defs>
  <g id="Group_143" data-name="Group 143" transform="translate(8707 -8900)">
    <g id="_001-success" data-name="001-success" transform="translate(-9685 8172.155)">
      <path id="Path_1" data-name="Path 1" class="cls-1" d="M16,0A16,16,0,1,0,32,16,16.018,16.018,0,0,0,16,0Zm0,30.769A14.769,14.769,0,1,1,30.769,16,14.786,14.786,0,0,1,16,30.769Z" transform="translate(978 766)"/>
      <path id="Path_2" data-name="Path 2" class="cls-1" d="M28.155,15.207,18.7,25.847,13,21.288a.615.615,0,0,0-.769.961l6.154,4.923a.616.616,0,0,0,.845-.072l9.846-11.077a.616.616,0,0,0-.921-.817Z" transform="translate(973.385 760.231)"/>
    </g>
    <g id="_001-success-2" data-name="001-success" transform="translate(-9685 8134)">
      <path id="Path_1-2" data-name="Path 1" class="cls-2" d="M16,0A16,16,0,1,0,32,16,16.018,16.018,0,0,0,16,0Zm0,30.769A14.769,14.769,0,1,1,30.769,16,14.786,14.786,0,0,1,16,30.769Z" transform="translate(978 766)"/>
      <path id="Path_2-2" data-name="Path 2" class="cls-2" d="M28.155,15.207,18.7,25.847,13,21.288a.615.615,0,0,0-.769.961l6.154,4.923a.616.616,0,0,0,.845-.072l9.846-11.077a.616.616,0,0,0-.921-.817Z" transform="translate(973.385 760.231)"/>
    </g>
  </g>
</svg>
