<svg xmlns="http://www.w3.org/2000/svg" viewBox="0 0 34.001 69.999">
  <defs>
    <style>
      .cls-1 {
        fill: #505961;
      }

      .cls-2 {
        fill: #502c5a;
      }
    </style>
  </defs>
  <g id="Group_142" data-name="Group 142" transform="translate(8670 -8900)">
    <g id="Group_141" data-name="Group 141" transform="translate(-8670 8900)">
      <g id="_005-decorating" data-name="005-decorating" transform="translate(-1151 -765)">
        <g id="Group_9" data-name="Group 9" transform="translate(1152.643 785.193)">
          <g id="Group_8" data-name="Group 8">
            <path id="Path_17" data-name="Path 17" class="cls-1" d="M50.174,308.3v-5.5a1.5,1.5,0,0,0-1.494-1.494H29.408a1.5,1.5,0,0,0-1.494,1.494v5.5a1.565,1.565,0,0,0,.5,3.047H49.672a1.565,1.565,0,0,0,.5-3.047Zm-21.256-5.5a.49.49,0,0,1,.489-.489H48.68a.49.49,0,0,1,.489.489v5.414H28.919Zm20.753,7.539H28.416a.56.56,0,0,1,0-1.121H49.672a.56.56,0,1,1,0,1.121Z" transform="translate(-26.851 -301.309)"/>
          </g>
        </g>
        <g id="Group_11" data-name="Group 11" transform="translate(1151 787.12)">
          <g id="Group_10" data-name="Group 10" transform="translate(0)">
            <path id="Path_18" data-name="Path 18" class="cls-1" d="M28.295,330.059h-.437v1h.437c.568,0,.568.136.568.324V338.1c0,.458-.308,1-.568,1H4.043c-.3,0-.706-.579-.706-1v-6.716c0-.105,0-.324.706-.324h.433v-1H4.043a2.2,2.2,0,0,0-1.093.239,1.2,1.2,0,0,0-.617,1.09V338.1A2.254,2.254,0,0,0,2.8,339.4a1.608,1.608,0,0,0,1.246.712h.433v2.144h1v-2.144h21.84v2.144h1v-2.145c.992-.025,1.541-1.193,1.541-2v-6.716C29.868,330.892,29.664,330.059,28.295,330.059Z" transform="translate(-2.333 -330.059)"/>
          </g>
        </g>
        <g id="Group_13" data-name="Group 13" transform="translate(1156.359 788.192)">
          <g id="Group_12" data-name="Group 12">
            <rect id="Rectangle_1" data-name="Rectangle 1" class="cls-1" width="1.072" height="1.005"/>
          </g>
        </g>
        <g id="Group_15" data-name="Group 15" transform="translate(1172.237 788.192)">
          <g id="Group_14" data-name="Group 14">
            <rect id="Rectangle_2" data-name="Rectangle 2" class="cls-1" width="1.139" height="1.005"/>
          </g>
        </g>
        <g id="Group_17" data-name="Group 17" transform="translate(1164.332 788.192)">
          <g id="Group_16" data-name="Group 16">
            <rect id="Rectangle_3" data-name="Rectangle 3" class="cls-1" width="1.072" height="1.005"/>
          </g>
        </g>
        <g id="Group_19" data-name="Group 19" transform="translate(1151.049 765)">
          <g id="Group_18" data-name="Group 18" transform="translate(0)">
            <path id="Path_19" data-name="Path 19" class="cls-1" d="M3.063,11.633H19.478V0H3.063ZM4.068,1H18.473v9.623H4.068Z" transform="translate(-3.063)"/>
          </g>
        </g>
        <g id="Group_21" data-name="Group 21" transform="translate(1152.643 766.594)">
          <g id="Group_20" data-name="Group 20" transform="translate(0)">
            <path id="Path_20" data-name="Path 20" class="cls-1" d="M26.851,23.787v8.444H40.078V23.787Zm12.222,7.44H27.856V24.792H39.073v6.435Z" transform="translate(-26.851 -23.787)"/>
          </g>
        </g>
        <g id="Group_23" data-name="Group 23" transform="translate(1168.053 776.691)">
          <g id="Group_22" data-name="Group 22">
            <path id="Path_21" data-name="Path 21" class="cls-1" d="M256.8,174.442v7.382H266.3v-7.382Zm8.5,6.377h-7.5v-5.372h7.5Z" transform="translate(-256.797 -174.442)"/>
          </g>
        </g>
        <g id="Group_25" data-name="Group 25" transform="translate(1169.647 778.285)">
          <g id="Group_24" data-name="Group 24">
            <path id="Path_22" data-name="Path 22" class="cls-1" d="M280.583,198.229v4.193H286.9v-4.193Zm5.314,3.188h-4.309v-2.183H285.9Z" transform="translate(-280.583 -198.229)"/>
          </g>
        </g>
        <g id="Group_27" data-name="Group 27" transform="translate(1168.585 767.126)">
          <g id="Group_26" data-name="Group 26">
            <path id="Path_23" data-name="Path 23" class="cls-1" d="M268.949,31.717a4.222,4.222,0,1,0,4.222,4.222A4.227,4.227,0,0,0,268.949,31.717Zm.5,7.4V38.58h-1v.537a3.225,3.225,0,0,1-2.664-2.614h.587v-1h-.607a3.224,3.224,0,0,1,2.684-2.737v.727h1v-.727a3.224,3.224,0,0,1,2.684,2.737h-.674v1h.655A3.225,3.225,0,0,1,269.452,39.117Z" transform="translate(-264.727 -31.717)"/>
          </g>
        </g>
        <g id="Group_29" data-name="Group 29" transform="translate(1170.63 769.701)">
          <g id="Group_28" data-name="Group 28">
            <path id="Path_24" data-name="Path 24" class="cls-1" d="M296.912,70.144V71.35h-1.675v1h2.68V70.144Z" transform="translate(-295.237 -70.144)"/>
          </g>
        </g>
        <g id="Group_31" data-name="Group 31" transform="translate(1178.681 784.842)">
          <g id="Group_30" data-name="Group 30">
            <path id="Path_25" data-name="Path 25" class="cls-1" d="M419.053,307.911h0V296.07h-1v11.841H415.38v2.6H421.7v-2.6h-2.646Zm1.641,1.594h-4.309v-.589h4.309Z" transform="translate(-415.38 -296.07)"/>
          </g>
        </g>
        <g id="Group_33" data-name="Group 33" transform="translate(1179.744 771.908)">
          <g id="Group_32" data-name="Group 32">
            <path id="Path_26" data-name="Path 26" class="cls-1" d="M431.238,103.079v11.633h1.6v.832h1v-.832h1.584V103.079Zm3.188,9.048h-1.584v1h1.584v.575h-2.183v-9.623h2.183Z" transform="translate(-431.238 -103.079)"/>
          </g>
        </g>
        <g id="Group_35" data-name="Group 35" transform="translate(1157.041 768.867)">
          <g id="Group_34" data-name="Group 34" transform="translate(0 0)">
            <rect id="Rectangle_4" data-name="Rectangle 4" class="cls-1" width="1.503" height="1.005" transform="translate(0 1.063) rotate(-45)"/>
          </g>
        </g>
        <g id="Group_37" data-name="Group 37" transform="translate(1157.041 768.336)">
          <g id="Group_36" data-name="Group 36" transform="translate(0 0)">
            <rect id="Rectangle_5" data-name="Rectangle 5" class="cls-1" width="5.26" height="1.005" transform="translate(0 3.72) rotate(-45)"/>
          </g>
        </g>
        <g id="Group_39" data-name="Group 39" transform="translate(1159.698 770.993)">
          <g id="Group_38" data-name="Group 38" transform="translate(0 0)">
            <rect id="Rectangle_6" data-name="Rectangle 6" class="cls-1" width="1.503" height="1.005" transform="translate(0 1.063) rotate(-45)"/>
          </g>
        </g>
      </g>
    </g>
    <path id="Union_8" data-name="Union 8" class="cls-2" d="M24.99,34.651V32.486H3.15v2.165H2.145V32.486H1.712a1.6,1.6,0,0,1-1.247-.719A2.293,2.293,0,0,1,0,30.461V23.679a1.219,1.219,0,0,1,.617-1.1,2.187,2.187,0,0,1,1.094-.241h.433v1.015H1.712c-.706,0-.706.22-.706.327v6.782c0,.425.409,1.01.706,1.01H25.963c.26,0,.568-.547.568-1.01V23.679c0-.19,0-.327-.568-.327h-.437V22.337h.437c1.368,0,1.572.841,1.573,1.342v6.782c0,.818-.549,2-1.541,2.023v2.166Zm2.692-.031V32H30.35V20.038h1.005V32H34V34.62Zm1.005-1.015H33V33.01H28.688ZM3.209,30.529a1.582,1.582,0,0,1-.5-3.077V21.9A1.5,1.5,0,0,1,4.2,20.391H23.474A1.5,1.5,0,0,1,24.968,21.9v5.551a1.582,1.582,0,0,1-.5,3.077Zm-.56-1.58a.564.564,0,0,0,.56.566H24.465a.566.566,0,0,0,0-1.132H3.209A.564.564,0,0,0,2.65,28.949ZM3.712,21.9v5.468H23.963V21.9a.492.492,0,0,0-.489-.494H4.2A.492.492,0,0,0,3.712,21.9Zm17.527,2.534V23.42h1.139v1.015Zm-7.906,0V23.42H14.4v1.015Zm-7.972,0V23.42H6.432v1.015ZM30.35,19.564v-.841h-1.6V6.976h4.193V18.724H31.355v.841Zm-.6-1.855h2.183v-.58H30.35V16.114h1.584V7.991H29.75Zm-12.7,1.551V11.805h9.508V19.26Zm1.005-1.015h7.5V12.821h-7.5Zm.588-.595V13.415h6.319V17.65Zm1.005-1.014h4.308V14.431H19.653ZM.049,11.747V0H16.465V11.747Zm1.005-1.014H15.46V1.014H1.055ZM17.586,6.41a4.223,4.223,0,1,1,4.222,4.263A4.248,4.248,0,0,1,17.586,6.41ZM22.31,9.076v.543a3.241,3.241,0,0,0,2.665-2.64h-.654V5.964h.674A3.242,3.242,0,0,0,22.31,3.2v.734h-1V3.2a3.24,3.24,0,0,0-2.684,2.764h.607V6.98h-.587a3.24,3.24,0,0,0,2.664,2.64V9.076ZM1.644,10.137V1.608H14.872v8.528ZM2.65,9.122H13.866v-6.5H2.65Zm6.05-2L9.762,6.052l.71.717L9.41,7.843Zm-2.658,0,3.72-3.757.71.717L6.753,7.842ZM19.631,6.98V5.964h1.675V4.747h1.005V6.98Zm-13.589-2L7.1,3.9l.71.717L6.753,5.7Z" transform="translate(-8670 8935.348)"/>
  </g>
</svg>
