<svg xmlns="http://www.w3.org/2000/svg" viewBox="0 0 34 67.693">
  <defs>
    <style>
      .cls-1 {
        fill: #502c5a;
      }

      .cls-2 {
        fill: #505961;
      }
    </style>
  </defs>
  <g id="Group_137" data-name="Group 137" transform="translate(8783 -8900)">
    <g id="_007-chat-1" data-name="007-chat-1" transform="translate(-9421 8170)">
      <g id="Group_42" data-name="Group 42" transform="translate(638 768)">
        <g id="Group_41" data-name="Group 41" transform="translate(0 0)">
          <path id="Path_28" data-name="Path 28" class="cls-1" d="M30.464,39.33H22.1a4.836,4.836,0,0,0,.1-.949V30.938a3.63,3.63,0,0,0-3.919-3.906H3.9a3.614,3.614,0,0,0-3.9,3.9v7.442a3.558,3.558,0,0,0,3.383,3.874v3.39a.637.637,0,0,0,1.128.408L7.7,42.273h6.487a4.917,4.917,0,0,0-.038.58v6.608A3.289,3.289,0,0,0,17.682,53h1.23l2.931,3.5a.637.637,0,0,0,1.128-.408V53h7.493A3.289,3.289,0,0,0,34,49.461V42.853A3.273,3.273,0,0,0,30.464,39.33ZM14.56,41l-.025.013H7.372a.637.637,0,0,0-.491.229L4.658,43.9V41.636A.637.637,0,0,0,4.021,41H3.9a2.381,2.381,0,0,1-2.625-2.625V30.938A2.377,2.377,0,0,1,3.9,28.313H18.274A2.383,2.383,0,0,1,20.9,30.944v7.43a3.363,3.363,0,0,1-.115.956h-3.1A3.383,3.383,0,0,0,14.56,41ZM30.915,51.723a2.054,2.054,0,0,1-.445,0H22.32a.637.637,0,0,0-.637.637v1.975l-1.994-2.383a.637.637,0,0,0-.491-.229h-1.51a2.052,2.052,0,0,1-2.262-2.262V42.853A2.052,2.052,0,0,1,17.688,40.6H30.464a2.052,2.052,0,0,1,2.262,2.262l.006,6.595A2.052,2.052,0,0,1,30.915,51.723Z" transform="translate(0 -27.032)"/>
        </g>
      </g>
      <g id="Group_44" data-name="Group 44" transform="translate(646.717 771.759)">
        <g id="Group_43" data-name="Group 43" transform="translate(0 0)">
          <path id="Path_29" data-name="Path 29" class="cls-1" d="M113.951,75.207a1.976,1.976,0,0,0-.841-.726,2.778,2.778,0,0,0-1.217-.255,2.67,2.67,0,0,0-1.274.306,2.23,2.23,0,0,0-.847.771,1.72,1.72,0,0,0-.331.949.574.574,0,0,0,.185.408.637.637,0,0,0,.452.191q.452,0,.637-.542a2.114,2.114,0,0,1,.421-.777,1.013,1.013,0,0,1,.771-.268,1.038,1.038,0,0,1,.733.261.841.841,0,0,1,.287.637.726.726,0,0,1-.1.363,1.343,1.343,0,0,1-.229.306q-.134.134-.44.4a7.472,7.472,0,0,0-.554.529,1.689,1.689,0,0,0-.452,1.211.637.637,0,0,0,.172.484.58.58,0,0,0,.414.159.529.529,0,0,0,.567-.488V79.12c.032-.153.064-.268.076-.325a.993.993,0,0,1,.076-.185,1.053,1.053,0,0,1,.147-.2,3.339,3.339,0,0,1,.261-.261q.586-.522.816-.745a2.168,2.168,0,0,0,.389-.529,1.465,1.465,0,0,0,.166-.707A1.7,1.7,0,0,0,113.951,75.207Z" transform="translate(-109.44 -74.225)"/>
        </g>
      </g>
      <g id="Group_46" data-name="Group 46" transform="translate(648.321 777.583)">
        <g id="Group_45" data-name="Group 45">
          <path id="Path_30" data-name="Path 30" class="cls-1" d="M131.018,148.063a.7.7,0,0,0-.694-.707h-.013l-.006-.006a.707.707,0,0,0-.516.2.682.682,0,0,0-.21.5.637.637,0,0,0,.217.529.752.752,0,0,0,.51.191.726.726,0,0,0,.5-.191A.637.637,0,0,0,131.018,148.063Z" transform="translate(-129.577 -147.349)"/>
        </g>
      </g>
      <g id="Group_48" data-name="Group 48" transform="translate(661.657 783.074)">
        <g id="Group_47" data-name="Group 47" transform="translate(0 0)">
          <path id="Path_31" data-name="Path 31" class="cls-1" d="M298.647,217.533a2.159,2.159,0,0,0-.159-.924.637.637,0,0,0-.593-.319.8.8,0,0,0-.637.249.981.981,0,0,0-.236.695q0,.325.051,1.077l.172,2.549a2.434,2.434,0,0,0,.159.745.408.408,0,0,0,.4.242.421.421,0,0,0,.408-.255,2.077,2.077,0,0,0,.159-.726l.274-2.612A7.048,7.048,0,0,0,298.647,217.533Z" transform="translate(-297.021 -216.288)"/>
        </g>
      </g>
      <g id="Group_50" data-name="Group 50" transform="translate(661.683 789.6)">
        <g id="Group_49" data-name="Group 49">
          <path id="Path_32" data-name="Path 32" class="cls-1" d="M298.729,298.458a.816.816,0,0,0-1.383.561v.013a.746.746,0,0,0,.242.593.841.841,0,0,0,.573.21.822.822,0,0,0,.561-.217.752.752,0,0,0,.242-.593A.765.765,0,0,0,298.729,298.458Z" transform="translate(-297.345 -298.229)"/>
        </g>
      </g>
    </g>
    <g id="_007-chat-1-2" data-name="007-chat-1" transform="translate(-9421 8132)">
      <g id="Group_42-2" data-name="Group 42" transform="translate(638 768)">
        <g id="Group_41-2" data-name="Group 41" transform="translate(0 0)">
          <path id="Path_28-2" data-name="Path 28" class="cls-2" d="M30.464,39.33H22.1a4.836,4.836,0,0,0,.1-.949V30.938a3.63,3.63,0,0,0-3.919-3.906H3.9a3.614,3.614,0,0,0-3.9,3.9v7.442a3.558,3.558,0,0,0,3.383,3.874v3.39a.637.637,0,0,0,1.128.408L7.7,42.273h6.487a4.917,4.917,0,0,0-.038.58v6.608A3.289,3.289,0,0,0,17.682,53h1.23l2.931,3.5a.637.637,0,0,0,1.128-.408V53h7.493A3.289,3.289,0,0,0,34,49.461V42.853A3.273,3.273,0,0,0,30.464,39.33ZM14.56,41l-.025.013H7.372a.637.637,0,0,0-.491.229L4.658,43.9V41.636A.637.637,0,0,0,4.021,41H3.9a2.381,2.381,0,0,1-2.625-2.625V30.938A2.377,2.377,0,0,1,3.9,28.313H18.274A2.383,2.383,0,0,1,20.9,30.944v7.43a3.363,3.363,0,0,1-.115.956h-3.1A3.383,3.383,0,0,0,14.56,41ZM30.915,51.723a2.054,2.054,0,0,1-.445,0H22.32a.637.637,0,0,0-.637.637v1.975l-1.994-2.383a.637.637,0,0,0-.491-.229h-1.51a2.052,2.052,0,0,1-2.262-2.262V42.853A2.052,2.052,0,0,1,17.688,40.6H30.464a2.052,2.052,0,0,1,2.262,2.262l.006,6.595A2.052,2.052,0,0,1,30.915,51.723Z" transform="translate(0 -27.032)"/>
        </g>
      </g>
      <g id="Group_44-2" data-name="Group 44" transform="translate(646.717 771.759)">
        <g id="Group_43-2" data-name="Group 43" transform="translate(0 0)">
          <path id="Path_29-2" data-name="Path 29" class="cls-2" d="M113.951,75.207a1.976,1.976,0,0,0-.841-.726,2.778,2.778,0,0,0-1.217-.255,2.67,2.67,0,0,0-1.274.306,2.23,2.23,0,0,0-.847.771,1.72,1.72,0,0,0-.331.949.574.574,0,0,0,.185.408.637.637,0,0,0,.452.191q.452,0,.637-.542a2.114,2.114,0,0,1,.421-.777,1.013,1.013,0,0,1,.771-.268,1.038,1.038,0,0,1,.733.261.841.841,0,0,1,.287.637.726.726,0,0,1-.1.363,1.343,1.343,0,0,1-.229.306q-.134.134-.44.4a7.472,7.472,0,0,0-.554.529,1.689,1.689,0,0,0-.452,1.211.637.637,0,0,0,.172.484.58.58,0,0,0,.414.159.529.529,0,0,0,.567-.488V79.12c.032-.153.064-.268.076-.325a.993.993,0,0,1,.076-.185,1.053,1.053,0,0,1,.147-.2,3.339,3.339,0,0,1,.261-.261q.586-.522.816-.745a2.168,2.168,0,0,0,.389-.529,1.465,1.465,0,0,0,.166-.707A1.7,1.7,0,0,0,113.951,75.207Z" transform="translate(-109.44 -74.225)"/>
        </g>
      </g>
      <g id="Group_46-2" data-name="Group 46" transform="translate(648.321 777.583)">
        <g id="Group_45-2" data-name="Group 45">
          <path id="Path_30-2" data-name="Path 30" class="cls-2" d="M131.018,148.063a.7.7,0,0,0-.694-.707h-.013l-.006-.006a.707.707,0,0,0-.516.2.682.682,0,0,0-.21.5.637.637,0,0,0,.217.529.752.752,0,0,0,.51.191.726.726,0,0,0,.5-.191A.637.637,0,0,0,131.018,148.063Z" transform="translate(-129.577 -147.349)"/>
        </g>
      </g>
      <g id="Group_48-2" data-name="Group 48" transform="translate(661.657 783.074)">
        <g id="Group_47-2" data-name="Group 47" transform="translate(0 0)">
          <path id="Path_31-2" data-name="Path 31" class="cls-2" d="M298.647,217.533a2.159,2.159,0,0,0-.159-.924.637.637,0,0,0-.593-.319.8.8,0,0,0-.637.249.981.981,0,0,0-.236.695q0,.325.051,1.077l.172,2.549a2.434,2.434,0,0,0,.159.745.408.408,0,0,0,.4.242.421.421,0,0,0,.408-.255,2.077,2.077,0,0,0,.159-.726l.274-2.612A7.048,7.048,0,0,0,298.647,217.533Z" transform="translate(-297.021 -216.288)"/>
        </g>
      </g>
      <g id="Group_50-2" data-name="Group 50" transform="translate(661.683 789.6)">
        <g id="Group_49-2" data-name="Group 49">
          <path id="Path_32-2" data-name="Path 32" class="cls-2" d="M298.729,298.458a.816.816,0,0,0-1.383.561v.013a.746.746,0,0,0,.242.593.841.841,0,0,0,.573.21.822.822,0,0,0,.561-.217.752.752,0,0,0,.242-.593A.765.765,0,0,0,298.729,298.458Z" transform="translate(-297.345 -298.229)"/>
        </g>
      </g>
    </g>
  </g>
</svg>
