<svg id="Столовая" xmlns="http://www.w3.org/2000/svg" viewBox="0 0 60 45.694">
  <defs>
    <style>
      .cls-1 {
        fill: #505961;
      }
    </style>
  </defs>
  <g id="Group_29" data-name="Group 29" transform="translate(0 0)">
    <g id="Group_28" data-name="Group 28" transform="translate(0 0)">
      <path id="Path_24" data-name="Path 24" class="cls-1" d="M112.7,166.315h-2.421V144.79h8.334a1.449,1.449,0,0,0,1.448-1.446v-2.413h5.378a1.449,1.449,0,0,0,1.448-1.446v-3.411a1.449,1.449,0,0,0-1.448-1.446H88.811a1.449,1.449,0,0,0-1.448,1.446v3.407a1.449,1.449,0,0,0,1.448,1.446h5.372v2.413a1.449,1.449,0,0,0,1.447,1.446h8.334v21.525h-2.413a3.953,3.953,0,0,0-3.951,3.938,1.449,1.449,0,0,0,1.448,1.446h9.669a.879.879,0,0,0,0-1.757H99.38a2.194,2.194,0,0,1,2.171-1.875H112.7a2.194,2.194,0,0,1,2.171,1.875h-2.739a.879.879,0,1,0,0,1.759H115.2a1.449,1.449,0,0,0,1.448-1.446,3.953,3.953,0,0,0-3.951-3.936Zm-4.178,0h-2.794V144.79h2.792Zm-3.671-23.282h-8.9v-2.1h2.381a.879.879,0,0,0,0-1.757H89.12V136.39h36v2.784H101.741a.879.879,0,0,0,0,1.759H118.3v2.1H104.851Z" transform="translate(-77.125 -126.002)"/>
      <path id="Path_25" data-name="Path 25" class="cls-1" d="M16.8,83.933H6.3V65.853A4.862,4.862,0,0,0,1.448,61,1.449,1.449,0,0,0,0,62.447v25.2a2.58,2.58,0,0,0,1.138,2.138v2.177a1.449,1.449,0,0,0,1.138,1.412V105.6a.879.879,0,1,0,1.759,0V99.089H14.788V105.6a.879.879,0,1,0,1.759,0V93.378a1.449,1.449,0,0,0,1.138-1.412V90.079a2.586,2.586,0,0,0,1.706-2.428V86.517A2.586,2.586,0,0,0,16.8,83.933Zm-2.016,13.4H4.033V93.411H14.788Zm1.138-5.677H2.9V90.231H15.926Zm1.706-4a.827.827,0,0,1-.827.825H2.586a.827.827,0,0,1-.827-.825V62.774a3.1,3.1,0,0,1,2.792,3.079v18.96a.879.879,0,0,0,.879.879H16.8a.827.827,0,0,1,.827.823Z" transform="translate(0 -61)"/>
      <path id="Path_26" data-name="Path 26" class="cls-1" d="M364.484,61a4.862,4.862,0,0,0-4.86,4.853V83.933h-10.5a2.588,2.588,0,0,0-2.586,2.582v1.134a2.585,2.585,0,0,0,1.706,2.428v1.886a1.449,1.449,0,0,0,1.138,1.412V105.6a.879.879,0,1,0,1.759,0V99.089H361.9V105.6a.879.879,0,1,0,1.759,0V93.378a1.449,1.449,0,0,0,1.138-1.412V89.789a2.58,2.58,0,0,0,1.138-2.138v-25.2A1.449,1.449,0,0,0,364.484,61ZM361.9,97.33H351.143V93.411H361.9Zm1.138-5.677H350.007V90.231h13.029Zm1.138-4a.827.827,0,0,1-.827.823h-14.22a.827.827,0,0,1-.827-.823V86.513a.827.827,0,0,1,.827-.823H360.5a.879.879,0,0,0,.879-.879V65.853a3.1,3.1,0,0,1,2.792-3.079Z" transform="translate(-305.931 -61)"/>
    </g>
  </g>
</svg>
