<svg id="Студио" xmlns="http://www.w3.org/2000/svg" viewBox="0 0 51.318 51.319">
  <defs>
    <style>
      .cls-1 {
        fill: #505961;
      }
    </style>
  </defs>
  <g id="Group_2" data-name="Group 2" transform="translate(0)">
    <g id="Group_1" data-name="Group 1" transform="translate(0)">
      <path id="Path_1" data-name="Path 1" class="cls-1" d="M150.145,12.03a1.086,1.086,0,0,0,1.086-1.086V1.086A1.086,1.086,0,0,0,150.145,0H101a1.086,1.086,0,0,0-1.086,1.086V50.233A1.086,1.086,0,0,0,101,51.319h49.146a1.086,1.086,0,0,0,1.086-1.086V8.125a1.086,1.086,0,0,0-2.173,0V26.733h-4.312a1.086,1.086,0,0,0,0,2.173h4.312v20.24H118.026V43.892a1.086,1.086,0,1,0-2.173,0v5.254H102.081V2.173h13.773V36.082a1.086,1.086,0,0,0,2.173,0V28.9H137.36a1.086,1.086,0,1,0,0-2.173H118.026V2.173h31.03v8.772a1.086,1.086,0,0,0,1.088,1.086Z" transform="translate(-99.912)"/>
    </g>
  </g>
</svg>
