<svg xmlns="http://www.w3.org/2000/svg" viewBox="0 0 32 32">
  <defs>
    <style>
      .cls-1 {
        fill: #2db6ec;
      }

      .cls-2 {
        fill: #fff;
      }
    </style>
  </defs>
  <g id="Group_659" data-name="Group 659" transform="translate(-1335 -301)">
    <g id="Assets_32X32_i_twitter_color" data-name="Assets/32X32/i_twitter_color" transform="translate(1335 301)">
      <rect id="icon" class="cls-1" width="32" height="32" rx="2"/>
      <g id="twitter-social-logotype" transform="translate(6.857 9.143)">
        <path id="Shape" class="cls-2" d="M18.264,1.742a.091.091,0,0,0-.106-.024,7.413,7.413,0,0,1-1.714.511A3.736,3.736,0,0,0,17.782.383a.088.088,0,0,0-.03-.1.092.092,0,0,0-.1-.007,7.412,7.412,0,0,1-2.281.865A3.856,3.856,0,0,0,12.625,0,3.776,3.776,0,0,0,8.82,3.737a3.7,3.7,0,0,0,.073.736A10.556,10.556,0,0,1,1.422.7.089.089,0,0,0,1.344.668a.091.091,0,0,0-.071.044,3.694,3.694,0,0,0,.917,4.8A3.684,3.684,0,0,1,.862,5.093a.092.092,0,0,0-.089,0,.089.089,0,0,0-.046.075v.048A3.758,3.758,0,0,0,3.4,8.787a3.72,3.72,0,0,1-1.265-.018.093.093,0,0,0-.085.028.088.088,0,0,0-.019.086,3.791,3.791,0,0,0,3.3,2.583,7.4,7.4,0,0,1-4.36,1.4,7.661,7.661,0,0,1-.875-.05.092.092,0,0,0-.1.058.088.088,0,0,0,.037.105,10.759,10.759,0,0,0,5.743,1.653A10.458,10.458,0,0,0,16.443,4.16q0-.215-.009-.428a7.514,7.514,0,0,0,1.836-1.883A.088.088,0,0,0,18.264,1.742Z"/>
      </g>
    </g>
  </g>
</svg>
